<svg xmlns="http://www.w3.org/2000/svg" viewBox="0 0 113.51 119.13"><g id="Calque_2" data-name="Calque 2"><g id="Calque_1-2" data-name="Calque 1"><g id="Calque_2-2" data-name="Calque 2"><g id="OBJECTS"><path d="M87.1,92.8c-4.59-3.19-16.34-12.93-16.34-12.93h0l-28.07-.31h0S38.31,83.32,33.86,87c-2.86,2.29-5.66,4.56-7.44,5.8C23.29,95,6.23,100.19,0,119.13H113.51C107.28,100.19,90.22,95,87.1,92.8Z" style="fill:#fbb931"/><path d="M70.76,79.87s-7.92,20.93-14.24,20.86S42.69,79.56,42.69,79.56a13.05,13.05,0,0,0,.65-1.22c3.16-6.72,2.87-19.76,2.87-19.76H67s-.3,13,2.86,19.76A11.79,11.79,0,0,0,70.76,79.87Z" style="fill:#ff9267"/><path d="M69.9,78.34a49.86,49.86,0,0,1-6.8,4,11.27,11.27,0,0,1-13,0,49.86,49.86,0,0,1-6.8-4c3.16-6.72,2.87-19.76,2.87-19.76H67S66.74,71.63,69.9,78.34Z" style="fill:#f87948"/><polygon points="22.57 119.13 18.74 119.13 17.09 105.21 22.57 119.13" style="fill:#e49e0c"/><polygon points="90.94 119.13 94.77 119.13 96.42 105.21 90.94 119.13" style="fill:#e49e0c"/><path d="M42.69,79.56S35,84.46,33.86,87l7.91,19.7,14.75-5.94Z" style="fill:#ffe6ac"/><path d="M56.52,100.73,70.76,79.87s7,4.32,8.33,6.78l-8.33,20Z" style="fill:#ffe6ac"/><path d="M60.29,106.69a1.48,1.48,0,1,1-1.48-1.48,1.48,1.48,0,0,1,1.48,1.48Z" style="fill:#e49e0c"/><path d="M60.29,112.46a1.48,1.48,0,1,1-1.5-1.46h0A1.48,1.48,0,0,1,60.29,112.46Z" style="fill:#e49e0c"/><path d="M37.78,45.08s-2.35-12.59-6-10.75-3.86,16.87,6,20.93Z" style="fill:#ff9267"/><path d="M35.46,49.4a20.53,20.53,0,0,0-.18-2.48,20.21,20.21,0,0,0-.62-3,20.76,20.76,0,0,0-2.22-5.06,14.54,14.54,0,0,0-.92-1.39L31.16,37l.78,2.12c.33.91.71,2.06,1.11,3.34l-.2.1a3,3,0,0,0-.87.66,3.17,3.17,0,0,0-.67,1.15,3.57,3.57,0,0,0,.05,2.35,4.18,4.18,0,0,0,.31.64l.14.21v-.25a2.2,2.2,0,0,1,.08-.66,10.42,10.42,0,0,1,.45-1.93,8.63,8.63,0,0,1,.39-1,4.28,4.28,0,0,1,.45-.78h0c.13.41.25.83.38,1.27.28,1,.54,2,.77,2.85s.41,1.69.55,2.37.26,1.23.33,1.62l.12.59.06-.61A10.34,10.34,0,0,0,35.46,49.4Z" style="fill:#ee5c1d"/><path d="M75.74,45.08s2.34-12.59,6-10.75,3.86,16.87-6,20.93Z" style="fill:#ff9267"/><path d="M78.05,49.4a20.53,20.53,0,0,1,.18-2.48,20.21,20.21,0,0,1,.62-3,20.76,20.76,0,0,1,2.22-5.06A14.33,14.33,0,0,1,82,37.49l.37-.49-.79,2.12c-.33.91-.71,2.06-1.11,3.34l.21.1a2.91,2.91,0,0,1,.86.66,3.17,3.17,0,0,1,.67,1.15,3.64,3.64,0,0,1,0,2.35,4.18,4.18,0,0,1-.31.64l-.14.21v-.25a2.5,2.5,0,0,0-.07-.66,11.54,11.54,0,0,0-.46-1.93c-.12-.35-.25-.68-.38-1A6.06,6.06,0,0,0,80.4,43h0L80,44.22c-.28,1-.54,2-.77,2.85s-.41,1.69-.55,2.37-.26,1.23-.33,1.62l-.12.59L78.19,51A4.26,4.26,0,0,1,78.05,49.4Z" style="fill:#ee5c1d"/><path d="M76.55,60.05a20.48,20.48,0,0,1-1.19,4.68,20,20,0,0,1-1.8,3.58,22.91,22.91,0,0,1-3,3.8,31.87,31.87,0,0,1-6.91,5.31c-.75.42-1.46.8-2.13,1.13A8.49,8.49,0,0,1,57.36,80H56.15a8.47,8.47,0,0,1-3.4-1,7.25,7.25,0,0,1-.75-.47,30.41,30.41,0,0,1-11.4-9.27,21.57,21.57,0,0,1-2-3.57A20.65,20.65,0,0,1,37,60.05c-1-7.4-1-16.85-.78-24.65.12-3.91.3-7.4.45-10,0-.58.07-1.11.1-1.6.13-2,.23-3.21.23-3.21a34.41,34.41,0,0,1,6.84-6.36,22.8,22.8,0,0,1,13-4.55,21.94,21.94,0,0,1,11.65,3.69,34.18,34.18,0,0,1,8.14,7.22S78.56,44.73,76.55,60.05Z" style="fill:#ffba83"/><path d="M76.55,60.05a20.48,20.48,0,0,1-1.19,4.68,20,20,0,0,1-1.8,3.58,22.91,22.91,0,0,1-3,3.8,31.87,31.87,0,0,1-6.91,5.31c-.75.42-1.46.8-2.13,1.13A8.49,8.49,0,0,1,57.36,80H56.15a8.47,8.47,0,0,1-3.4-1C61.07,76,69,70.77,72.34,62.68c2.06-5,2.17-10.52,2.13-15.92q0-8.76-.51-17.53c-.09-1.76,0-4-1.73-4.08a27.76,27.76,0,0,1-13.59,5.42,6.32,6.32,0,0,0,2.45-3,24.64,24.64,0,0,1-18,1.11,24.58,24.58,0,0,1-6.48-3.29c0-.58.07-1.11.1-1.6.13-2,.23-3.21.23-3.21a34.41,34.41,0,0,1,6.84-6.36,22.8,22.8,0,0,1,13-4.55,21.94,21.94,0,0,1,11.65,3.69,34.18,34.18,0,0,1,8.14,7.22S78.56,44.73,76.55,60.05Z" style="fill:#ff9267"/><path d="M60,70a9.59,9.59,0,0,0-7.38.12,10,10,0,0,0,1.66,2.28,3,3,0,0,0,2.42.91,3.54,3.54,0,0,0,1.81-1A10.25,10.25,0,0,0,60,70Z" style="fill:#ffdbb6"/><path d="M83.05,28.1l-1.73,6.08-2.17,2-.58.53-1.13,7.61L76,23.25s-2.28-3.83-4.12-1.16a11.94,11.94,0,0,1-8.45,5,12,12,0,0,0,4.31-5.85,27.88,27.88,0,0,1-28.66,3.19c.54,6.35-3,22.12-3,22.12v-5l-1.6-3.7L32.94,34.3,33.3,20c-1-1.79-2.25-3.32-3.25-5.11,3,.87,6.28-.51,8.7-2.51S43,7.75,45.32,5.6C49.65,1.6,55.77-.8,61.59.25s11,5.91,11.59,11.8A8.46,8.46,0,0,1,80,14.45a11.36,11.36,0,0,1,3.42,6.36A17.93,17.93,0,0,1,83.05,28.1Z" style="fill:#3d3d3d"/><path d="M79.15,36.2l-.58.53-1.13,7.61L76,23.25s-2.28-3.83-4.12-1.16a11.94,11.94,0,0,1-8.45,5,12,12,0,0,0,4.31-5.85,27.88,27.88,0,0,1-28.66,3.19c.54,6.35-3,22.12-3,22.12v-5l-1.6-3.7A21.44,21.44,0,0,0,36.66,22.6a16.33,16.33,0,0,0-1.56-3.13,35,35,0,0,0,34.39-2.64,6.14,6.14,0,0,1,.64,3.72A7.24,7.24,0,0,1,75,18.8a4.94,4.94,0,0,1,4.18,2.81c.71,1.71.22,3.64-.09,5.47A26.6,26.6,0,0,0,79.15,36.2Z" style="fill:#292929"/><path d="M69.88,13.71c-1.13,2.32-3.47,3.8-5.83,4.83a28.8,28.8,0,0,1-15.53,2.09A25.88,25.88,0,0,0,52,18.57c.4-.24.84-.58.84-1s-.38-.79-.37-1.22c0-.69,1-1,1.16-1.66s-.56-1.24-1.23-1.43-1.46-.29-1.87-.86a6.67,6.67,0,0,1-.44-1.12,3.08,3.08,0,0,0-2.77-1.52,23.55,23.55,0,0,1-3.36,0A22.46,22.46,0,0,1,63.91,1.88a23.2,23.2,0,0,1-2.6,1.28A2.25,2.25,0,0,0,60,5.45a2.11,2.11,0,0,0,1.52,1.36c.68.2,1.4.21,2.1.35a1.78,1.78,0,0,1,1.23.69,1.41,1.41,0,0,1,0,1.38,4.2,4.2,0,0,1-1,1.06,4,4,0,0,0-1.35,1.63,1.36,1.36,0,0,0,.71,1.77c.23.07.47.05.7.1a.53.53,0,0,1,.46.46c0,.24-.12.33-.13.51,0,.44.59.58,1,.54A12.49,12.49,0,0,0,69.88,13.71Z" style="fill:#5b5b5b"/><path d="M40.36,44.25a7.28,7.28,0,0,1,6.09-1.71,7.15,7.15,0,0,1,5.11,3.65,7.37,7.37,0,0,0-4.85-5,5.77,5.77,0,0,0-4,.43A4.75,4.75,0,0,0,40.36,44.25Z" style="fill:#55062c"/><path d="M43.53,44.83c-.21,1.79.58,3.36,1.77,3.49s2.31-1.2,2.52-3-.59-3.36-1.77-3.49S43.73,43,43.53,44.83Z" style="fill:#55062c"/><path d="M41.31,44.28a4.53,4.53,0,0,1,4,1.27,3,3,0,0,1-2.11.31A4,4,0,0,1,41.31,44.28Z" style="fill:#fff"/><path d="M73.15,44.25a7.31,7.31,0,0,0-6.09-1.71A7.14,7.14,0,0,0,62,46.19a7.37,7.37,0,0,1,4.85-5,5.77,5.77,0,0,1,4,.43A4.76,4.76,0,0,1,73.15,44.25Z" style="fill:#55062c"/><path d="M70,44.83c.21,1.79-.58,3.36-1.77,3.49s-2.31-1.2-2.52-3,.59-3.36,1.77-3.49S69.78,43,70,44.83Z" style="fill:#55062c"/><path d="M71.79,44.08a4.53,4.53,0,0,0-4,1.26,3,3,0,0,0,2.11.31A4,4,0,0,0,71.79,44.08Z" style="fill:#fff"/><path d="M45.24,16a.62.62,0,0,1,1,.24.65.65,0,0,1-.14.61C44.77,18.5,44.53,21,47,21.6c.52.11.61.95,0,1.07a3,3,0,0,1-3.18-2.08C43.28,18.94,44.15,17.21,45.24,16Z" style="fill:#e80e22"/><path d="M37.3,16.87a2.4,2.4,0,0,0,3.39,0l0,0c.83-.72,1.19-2.07,2.21-2.48a.3.3,0,0,1,.38.19h0c.29,1.52-1.62,3.44-2.92,4s-3.43.41-4-1.15C36.18,16.87,36.9,16.55,37.3,16.87Z" style="fill:#e80e22"/><path d="M39.22,24.85a4.3,4.3,0,0,1,1.9-1.68,3.11,3.11,0,0,1,4.15,1.34c.35.69-.63,1.34-1,.65a2,2,0,0,0-2.77-.57,1.3,1.3,0,0,0-.23.18,3.57,3.57,0,0,0-1.06,1.34c-.27.54-.28,1-.84,1.32a.51.51,0,0,1-.67-.16C38.23,26.51,38.79,25.53,39.22,24.85Z" style="fill:#e80e22"/><path d="M35.44,19.21A3.66,3.66,0,0,1,38,22a4.57,4.57,0,0,1-1.2,4,.42.42,0,0,1-.59,0,.43.43,0,0,1-.12-.37,10.44,10.44,0,0,0,.73-2.79,2.47,2.47,0,0,0-1.65-2.42A.62.62,0,0,1,35.44,19.21Z" style="fill:#e80e22"/><path d="M73.61,20.39c.38-.76,1.08.11,1.4.41a4,4,0,0,0,3.88.78.4.4,0,0,1,.31.73A4.25,4.25,0,0,1,73.61,21,.61.61,0,0,1,73.61,20.39Z" style="fill:#e80e22"/><path d="M74.93,26.39a3.57,3.57,0,0,1,4.23-2.68.43.43,0,0,1,.34.52.45.45,0,0,1-.46.35,2.93,2.93,0,0,0-3,2.1.55.55,0,1,1-1.07-.29Z" style="fill:#e80e22"/><path d="M72.43,21.8a3.33,3.33,0,0,1,1.91,4.32c0,.12-.11.25-.17.37-.29.61-1.16.07-.9-.53a2.88,2.88,0,0,0-1.17-3.6C71.83,22.15,72.12,21.71,72.43,21.8Z" style="fill:#e80e22"/><path d="M62.39,42.27a1.59,1.59,0,0,1-.87.61,1.2,1.2,0,0,1-1.1-.84,3.4,3.4,0,0,1,1.22-3.74,7.69,7.69,0,0,1,3.93-1.42,24.3,24.3,0,0,1,4.82-.22c.45,0,2.84.37,2.39,1.26-.28.56-2,.41-2.45.42A11.6,11.6,0,0,0,62.39,42.27Z" style="fill:#292929"/><path d="M49,37a5.2,5.2,0,0,1,3.09,2.83,1.59,1.59,0,0,1-.51,1.92,1.46,1.46,0,0,1-1.4-.13,6.61,6.61,0,0,1-1.11-1,13.19,13.19,0,0,0-5.74-2.83c-.68-.18-3.82-.3-3.51-1.55.26-1.08,3.41-.68,4.11-.61A17.17,17.17,0,0,1,49,37Z" style="fill:#292929"/><path d="M48.45,67.41A7.5,7.5,0,0,1,49.66,67c2.39-.7,5.18-.32,7.71.19,2.75.56,5.61,1.2,8.33.7a2.45,2.45,0,0,0,.64-.14c.38-2.2-.87-5.53-2-7.21-.42-.62-.84-1-1.15-1a15.29,15.29,0,0,0-6.7.89c-2.06.58-4.35,1.13-6.38.57l-.41-.13A5.54,5.54,0,0,0,48.45,67.41Z" style="fill:#642308"/><path d="M49,65.6a6.63,6.63,0,0,0,.66,1.4c2.39-.7,5.18-.32,7.71.19,2.75.56,5.61,1.2,8.33.7a3.44,3.44,0,0,0-.18-1.11,10.76,10.76,0,0,0-1.75-3.25,6,6,0,0,0,.55-3c-.42-.62-.84-1-1.15-1.05a15.29,15.29,0,0,0-6.7.89c-2.06.58-4.35,1.13-6.38.57a5,5,0,0,0-.69,2.46,1.24,1.24,0,0,0-.64,1A2.77,2.77,0,0,0,49,65.6Z" style="fill:#fff"/><path d="M72.67,57.68a9.59,9.59,0,0,1-13.16,3.23A9.81,9.81,0,0,1,57,58.68a9.59,9.59,0,0,1-15.69-1h.16L49.79,55a10.76,10.76,0,0,1,3.63-.72A5.12,5.12,0,0,1,57,55.59a5.14,5.14,0,0,1,3.56-1.35A10.77,10.77,0,0,1,64.2,55L71,57.15Z" style="fill:#292929"/><path d="M71,57.15h-.08a13.42,13.42,0,0,1-6.27.08l2,1.77A7.58,7.58,0,0,1,59,57.19v1.38a2.77,2.77,0,0,1-1.79-1.41,3.23,3.23,0,0,1-2.07.94L55.9,57a17.6,17.6,0,0,1-4.13,2.56,2.68,2.68,0,0,1-1.82.3,1,1,0,0,1-.64-1.48,15.86,15.86,0,0,1-5,.41,6.18,6.18,0,0,1-2.88-1.14L49.79,55a10.76,10.76,0,0,1,3.63-.72A5.12,5.12,0,0,1,57,55.59a5.14,5.14,0,0,1,3.56-1.35A10.77,10.77,0,0,1,64.2,55Z" style="fill:#3d3d3d"/><path d="M61.62,52.28c-1.38.64-3.27,1.66-4.7,2.15a10.11,10.11,0,0,1-4.3-2.59,5,5,0,0,1,9,.44Z" style="fill:#ffdbb6"/><path d="M61.89,55.58a7.94,7.94,0,0,1-4.89.23A6.07,6.07,0,0,1,52.06,55a4.69,4.69,0,0,1,.1-2.52,7.68,7.68,0,0,0,4.57,2.37c1.73.23,3.44-1,5-1.86A7.27,7.27,0,0,1,61.89,55.58Z" style="fill:#ff9267"/><path d="M53.71,55.3a1.72,1.72,0,0,1-.59-.2.61.61,0,0,1-.28-.55.52.52,0,0,1,.52-.4,1.28,1.28,0,0,1,.68.2,6.61,6.61,0,0,1,2,1.21A6.8,6.8,0,0,1,53.71,55.3Z" style="fill:#893412"/><path d="M60.53,55.3a1.72,1.72,0,0,0,.59-.2.61.61,0,0,0,.28-.55.53.53,0,0,0-.52-.4,1.32,1.32,0,0,0-.69.2,6.92,6.92,0,0,0-1.95,1.21A7.08,7.08,0,0,0,60.53,55.3Z" style="fill:#893412"/><path d="M64.78,53.7c.62.93,2,1,3.07.83,1.79-.3,4.74-1.23,5.59-3a2.08,2.08,0,0,0-.75-2.85,1.86,1.86,0,0,0-.76-.26C69.75,48,62.73,50.68,64.78,53.7Z" style="fill:#ff9267"/><path d="M47.44,54.27c-.65,1-2,1-3.19.86-1.86-.32-4.93-1.28-5.81-3.15A2.15,2.15,0,0,1,40,48.75C42.28,48.34,49.57,51.13,47.44,54.27Z" style="fill:#ff9267"/></g></g></g></g></svg>