<svg width="113" height="113" viewBox="0 0 113 113" fill="none" xmlns="http://www.w3.org/2000/svg">
<g clip-path="url(#clip0_13_273)">
<path d="M84.049 74.1575L67.8816 48.1636C70.1155 43.0841 68.8699 40.1688 65.9806 35.2952C61.7796 28.541 52.9547 27.3592 52.9547 27.3592L49.3902 21.6283C47.8627 19.1723 44.7088 18.4372 42.4187 20.0035L16.2201 36.2984C13.7641 37.8259 13.2337 40.8526 14.5953 43.2699L18.1598 49.0008C17.4648 57.2392 18.1513 58.7992 24.6824 69.0716C28.3741 75.0071 34.8378 81.0638 34.8378 81.0638L34.7991 81.2297C35.4693 84.361 38.8118 86.54 41.9816 85.7039C45.1129 85.0337 47.2919 81.6912 46.4557 78.5214L47.2147 82.0233C47.8849 85.1547 51.0998 87.129 54.2312 86.4588L54.6019 86.3703C57.7332 85.7001 59.7075 82.4851 59.0373 79.3538L58.5943 77.5004L60.3491 81.2344L60.8583 82.0531C62.6406 84.9186 66.3309 85.6037 69.1577 83.9874C71.9845 82.3711 72.8743 78.5534 71.0533 75.8539L63.4152 63.5734L83.4017 95.7073C85.1839 98.5727 88.8356 99.4238 91.7011 97.6416C94.5665 95.8593 95.2517 92.1689 93.6354 89.3422L91.3439 85.658" fill="#E3A126"/>
<path d="M83.4511 72.9681L68.6066 49.5576C70.8405 44.4781 69.5949 41.5628 66.7056 36.6892C62.5046 29.935 53.6797 28.7532 53.6797 28.7532L50.1152 23.0223C48.5876 20.5663 45.4337 19.8312 43.1437 21.3975L20.5183 33.625C18.0623 35.1526 17.5318 38.1792 18.8935 40.5966L22.458 46.3275C21.763 54.5658 22.4495 56.1258 28.9805 66.3982C32.6723 72.3337 39.136 78.3904 39.136 78.3904L39.0973 78.5564C39.7675 81.6877 43.1099 83.8667 46.2797 83.0305C49.4111 82.3603 48.4426 81.2594 47.6449 77.9235L48.4039 81.4254C49.0741 84.5567 52.2891 86.531 55.4204 85.8608L55.625 85.7336C58.7563 85.0634 60.7307 81.8484 60.0605 78.7171L59.6175 76.8638L61.3722 80.5978L61.8814 81.4164C63.6637 84.2819 64.9866 86.8653 67.8134 85.249C70.6788 83.4668 74.4728 77.7008 72.8565 74.874L61.8774 65.6649L83.4016 95.7073C88.1654 96.2925 88.2765 98.0685 90.9374 96.4135C93.5982 94.7585 94.6539 90.9795 92.833 88.28L90.5416 84.5959" fill="#FECB5C"/>
<path d="M12.2925 38.883C12.6794 37.223 13.7302 35.7179 15.3675 34.6995L41.4001 18.3661C44.675 16.3292 48.8247 17.2963 50.6955 20.5325L53.8781 25.6494C56.2019 26.191 63.4669 28.0591 67.2858 34.1994L67.4131 34.404C70.2137 38.9068 71.8799 42.2703 69.7347 47.7206L85.6477 73.3051C86.1569 74.1237 85.9247 75.1197 85.1061 75.6289C84.2874 76.1381 83.2914 75.906 82.7822 75.0873L68.397 51.9589C67.9489 52.3795 67.335 52.7614 66.6709 52.6067L66.505 52.568C65.7138 52.2086 65.2044 51.3899 65.4365 50.3939L66.4262 47.6495L66.4649 47.4835C68.378 43.0293 67.3484 40.6893 64.5091 36.3524L64.3818 36.1478C60.524 30.1736 52.7337 29.058 52.7337 29.058C52.2358 28.9419 51.7764 28.6599 51.5219 28.2505L47.9961 22.3537C46.9777 20.7163 44.9858 20.2521 43.3484 21.2704L17.1499 37.5653C15.5125 38.5837 15.2142 40.6144 16.0667 42.213L19.4652 47.9053C19.7199 48.3147 19.8085 48.6853 19.897 49.056C19.1521 56.7577 19.7499 57.9471 26.1537 68.0148C29.7182 73.7458 35.8885 79.559 36.0546 79.5977C36.348 79.841 36.4752 80.0458 36.5638 80.4163C36.791 81.6943 37.4661 82.5517 38.5507 83.1545C39.4693 83.7187 40.6312 83.9895 41.7431 83.7236C42.8549 83.4577 43.7125 82.7826 44.4426 81.9027C45.0068 80.9841 45.2776 79.8222 45.0117 78.7103C44.873 77.803 45.4372 76.8844 46.3445 76.7458C47.2517 76.6072 48.1703 77.1713 48.309 78.0786L49.0679 81.5805C49.5997 83.8044 51.7301 85.1761 53.954 84.6443L54.3248 84.5558C56.5487 84.024 57.9203 81.8936 57.3886 79.6697L56.9455 77.8159C56.8068 76.9087 57.1664 76.1173 58.1123 75.8128C58.8923 75.4695 59.8496 75.8676 60.1929 76.6478L61.8204 80.1771L62.2023 80.7912C62.8388 81.8145 63.7574 82.3787 64.9193 82.6495C66.0812 82.9203 67.1933 82.6544 68.2165 82.0179C69.2398 81.3815 69.804 80.4629 70.0748 79.301C70.3069 78.305 70.207 77.2318 69.5705 76.2083L61.8051 63.7232C61.2959 62.9045 61.528 61.9086 62.3467 61.3994C63.1654 60.8902 64.1614 61.1223 64.6706 61.941L72.3087 74.2215L72.436 74.4261L84.9117 94.4843C86.1848 96.5311 88.8405 97.15 90.7214 95.8383C91.6673 95.5337 92.4361 94.4878 92.6682 93.4918C92.939 92.3299 92.6732 91.2179 92.2026 90.2333L89.8725 86.7151C89.3633 85.8964 89.5955 84.9004 90.4141 84.3912C91.2328 83.882 92.2288 84.1142 92.738 84.9328L95.0294 88.6169C96.048 90.2543 96.4136 92.4397 95.9494 94.4315C95.4852 96.4233 94.2297 98.0559 92.5535 99.2402C88.8694 101.532 84.2217 100.448 81.9303 96.7643L72.5984 81.9889C71.9182 83.4055 70.9448 84.5786 69.7168 85.3425C68.0795 86.3609 65.8941 86.7267 63.9023 86.2625C62.4083 85.9143 61.0305 85.0682 59.8961 83.9288C58.8952 85.9707 57.1418 87.4871 54.7517 87.9801L54.381 88.0687C51.2497 88.7389 48.0459 87.4671 46.391 84.8065C45.3789 86.1457 43.7803 86.9982 42.0929 87.4799C40.0736 87.8842 38.0429 87.5861 36.3718 86.4966C34.7007 85.4071 33.6436 83.9357 33.0345 82.0437C31.6067 80.6608 26.3549 75.4118 23.045 70.0901C16.8071 60.061 15.5727 57.8483 16.2677 49.6099L13.2012 43.9951C12.1827 42.3575 11.9057 40.5429 12.2925 38.883Z" fill="black"/>
<path d="M86.3467 80.8182C86.8559 81.6369 87.8519 81.869 88.6706 81.3598C89.4892 80.8506 89.7214 79.8546 89.2122 79.036C88.703 78.2173 87.707 77.9852 86.8883 78.4944C86.0696 79.0036 85.8375 79.9996 86.3467 80.8182Z" fill="black"/>
<path d="M28.9566 59.7423C29.6143 56.9205 31.7272 54.613 34.6925 53.9039C38.7697 52.9291 42.9034 55.4674 43.8394 59.7108L47.9771 78.0006C48.9518 82.0779 46.4135 86.2115 42.1701 87.1476C38.0929 88.1223 33.9592 85.584 33.0232 81.3406L28.8856 63.0508C28.7858 61.9776 28.6858 60.9043 28.9566 59.7423ZM35.4514 57.406C33.2275 57.9377 31.6512 60.1954 32.3489 62.458L36.4866 80.7478C37.0183 82.9718 39.276 84.548 41.4999 84.0162C43.7238 83.4845 45.3001 81.2268 44.6024 78.9642L40.4648 60.6744C39.9719 58.2846 37.7142 56.7083 35.4514 57.406Z" fill="black"/>
<path d="M50.1269 47.0008C50.978 43.349 52.0451 40.2725 53.0572 38.9335C53.5826 38.181 54.6945 37.9151 55.4472 38.4404C56.1997 38.9659 56.4656 40.0777 55.9403 40.8304C53.5952 44.134 50.634 60.5944 51.8471 66.6524C52.1629 68.3011 53.4248 69.6451 54.7913 69.7887C56.4899 70.0096 58.0774 68.4546 59.4764 65.4554C60.8753 62.4564 64.0102 54.2617 66.4651 47.4836C66.8245 46.6924 67.8093 46.2217 68.6392 46.4151C69.4303 46.7745 69.901 47.7593 69.7076 48.5892C67.369 54.8693 64.118 63.5621 62.6802 66.7269C59.8436 72.891 56.087 73.2405 54.5543 73.0583C51.6551 72.7327 49.2588 70.249 48.5886 67.1178C47.4864 62.8359 48.5021 53.9723 50.1269 47.0008Z" fill="black"/>
<path d="M40.9292 58.6826C41.5481 56.0267 43.6611 53.7192 46.6263 53.0103L46.997 52.9217C48.1091 52.6559 49.6415 52.8381 50.9696 53.1476C51.7995 53.341 52.3088 54.1597 52.1154 54.9898C51.4915 59.9195 51.1883 64.2239 51.6813 66.614C52.0857 68.6332 54.8914 70.8623 57.0766 70.4965C57.9839 70.3578 58.7365 70.8833 59.0411 71.8293L60.5588 78.8332C60.9632 80.8525 60.665 82.8832 59.5756 84.5543C58.4861 86.2254 56.81 87.4099 54.9567 87.8529L54.586 87.9415C52.5667 88.3458 50.536 88.0477 48.8649 86.9582C47.1938 85.8687 46.0092 84.1927 45.5662 82.3393L40.9853 62.1959C40.5922 60.8792 40.697 59.6786 40.9292 58.6826ZM48.4971 56.2463C48.1651 56.1689 47.9605 56.2962 47.5899 56.3849L47.2191 56.4735C44.9952 57.0053 43.6236 59.1357 44.1553 61.3596L48.736 81.5028C49.0018 82.6148 49.677 83.4722 50.5956 84.0362C51.5142 84.6002 52.6761 84.8711 53.6221 84.5666L53.9928 84.478C55.1048 84.2121 55.9622 83.537 56.5262 82.6184C57.0904 81.6998 57.3612 80.5378 57.0566 79.5919L55.7661 73.8659C52.3302 73.5902 48.6834 70.4651 48.0519 67.1679C47.8907 64.8552 47.9506 60.8441 48.4971 56.2463Z" fill="black"/>
</g>
<defs>
<clipPath id="clip0_13_273">
<rect width="94.0818" height="94.0818" fill="white" transform="translate(112.981 21.3547) rotate(103.119)"/>
</clipPath>
</defs>
</svg>
