<svg width="321" height="104" viewBox="0 0 321 104" fill="none" xmlns="http://www.w3.org/2000/svg">
<path d="M301.309 87.1339C294.784 87.1339 290.478 84.9646 287.175 82.6233C283.873 80.2821 277.603 76.0405 277.462 69.0564C277.406 65.435 282.563 60.5393 282.535 57.2089C282.507 53.8785 282.493 50.5966 282.493 47.3633C282.493 44.0975 282.507 40.7833 282.535 37.4206C282.563 34.0579 282.605 30.5496 282.661 26.8959C282.746 20.2028 284.278 15.3204 287.26 12.2487C290.269 9.14462 294.245 1.44621 300.601 1.44621C306.817 1.44621 312.095 9.17695 315.02 12.3457C317.973 15.5144 319.534 20.3968 319.703 26.9929C319.731 28.0599 319.745 29.224 319.745 30.485C319.745 31.7137 319.731 32.9585 319.703 34.2195C319.675 35.4482 319.647 36.5961 319.619 37.6631H306.962C306.99 36.4667 299.85 31.6637 299.878 30.3703C299.906 29.0446 307.089 31.2933 307.089 30C307.089 28.6743 307.075 27.4133 307.046 26.2169C307.018 23.7919 306.554 22.062 305.654 21.0273C304.754 19.9603 303.306 19.4268 301.309 19.4268C299.256 19.4268 297.751 19.9603 296.795 21.0273C295.866 22.062 295.374 23.7919 295.318 26.2169C295.234 29.7736 295.163 33.3142 295.107 36.8386C295.079 40.363 295.065 43.8712 295.065 47.3633C295.065 50.8553 295.079 54.3474 295.107 57.8394C295.163 61.3315 295.234 64.8559 295.318 68.4126C295.374 70.87 295.866 72.6322 296.795 73.6992C297.751 74.7662 299.256 75.2997 301.309 75.2997C303.418 75.2997 304.937 74.7662 305.865 73.6992C306.793 72.6322 307.3 70.87 307.384 68.4126C307.44 67.0223 307.468 65.7451 307.468 64.581C307.496 63.417 307.496 62.2368 307.468 61.0405C307.468 59.8441 307.44 58.5184 307.384 57.0634L312.04 50.2532C312.296 49.879 312.829 49.8297 313.149 50.1508L320.041 57.0634C320.097 58.6154 320.125 60.3776 320.125 62.35C320.125 64.3224 320.097 66.0846 320.041 67.6366C319.872 74.6207 318.339 79.6163 315.442 82.6233C312.573 85.6304 307.862 87.1339 301.309 87.1339Z" fill="#34250F"/>
<path d="M301.324 87.1339C288.598 87.1339 280.836 78.2156 278.547 73.7565L310.725 71.2256L318.317 77.372C317.956 80.626 314.051 87.1339 301.324 87.1339Z" fill="#982828"/>
<path d="M294.078 79.9029C287.552 79.9029 282.841 78.3994 279.944 75.3923C277.076 72.3853 275.571 67.3897 275.43 60.4056C275.374 56.7842 275.332 53.3083 275.304 49.9779C275.275 46.6475 275.261 43.3656 275.261 40.1322C275.261 36.8665 275.275 33.5523 275.304 30.1896C275.332 26.8268 275.374 23.3186 275.43 19.6649C275.515 12.9718 277.047 8.08936 280.029 5.01764C283.038 1.91358 287.721 0.361557 294.078 0.361557C300.294 0.361557 304.864 1.94592 307.789 5.11464C310.742 8.28336 312.303 13.1658 312.472 19.7619C312.5 20.8289 312.514 21.9929 312.514 23.2539C312.514 24.4826 312.5 25.7275 312.472 26.9885C312.45 27.9513 312.428 28.8645 312.406 29.728C312.396 30.1198 312.075 30.4321 311.683 30.4321H300.471C300.065 30.4321 299.739 30.0979 299.748 29.692C299.771 28.7245 299.793 27.7264 299.815 26.6975C299.843 25.3718 299.858 24.0623 299.858 22.7689C299.858 21.4432 299.843 20.1822 299.815 18.9859C299.787 16.5608 299.323 14.831 298.423 13.7963C297.523 12.7293 296.075 12.1958 294.078 12.1958C292.024 12.1958 290.52 12.7293 289.563 13.7963C288.635 14.831 288.143 16.5608 288.087 18.9859C288.002 22.5426 287.932 26.0832 287.876 29.6075C287.848 33.1319 287.834 36.6402 287.834 40.1322C287.834 43.6243 287.848 47.1163 287.876 50.6084C287.932 54.1005 288.002 57.6249 288.087 61.1816C288.143 63.639 288.635 65.4011 289.563 66.4682C290.52 67.5352 292.024 68.0687 294.078 68.0687C296.187 68.0687 297.706 67.5352 298.634 66.4682C299.562 65.4011 300.069 63.639 300.153 61.1816C300.209 59.7912 300.237 58.514 300.237 57.35C300.265 56.186 300.265 55.0058 300.237 53.8095C300.237 52.8222 300.218 51.747 300.18 50.5836C300.166 50.1735 300.494 49.8324 300.904 49.8324H312.112C312.501 49.8324 312.821 50.1403 312.833 50.5292C312.873 51.9061 312.894 53.4361 312.894 55.119C312.894 57.0913 312.866 58.8535 312.81 60.4056C312.641 67.3897 311.108 72.3853 308.211 75.3923C305.342 78.3994 300.631 79.9029 294.078 79.9029Z" fill="#FF8A00"/>
<path d="M239.086 87.1339C238.888 87.1339 238.699 87.0528 238.562 86.9095L231.813 79.8227C231.645 79.647 231.577 79.3991 231.632 79.1627L247.938 7.91522C247.984 7.71035 248.118 7.53602 248.304 7.43761L261.198 0.60437C261.472 0.459227 261.808 0.504794 262.033 0.717654L269.12 7.41182C269.243 7.52858 269.322 7.68517 269.341 7.85407L278.453 86.3274C278.503 86.757 278.167 87.1339 277.735 87.1339H266.059C265.852 87.1339 265.655 87.045 265.518 86.8897L259.37 79.9344C259.163 79.7 259.13 79.3589 259.289 79.0891L263.679 71.6192C263.962 71.1371 263.614 70.5297 263.055 70.5297H253.668C253.292 70.5297 252.979 70.8172 252.947 71.1914L251.645 86.4722C251.614 86.8464 251.3 87.1339 250.925 87.1339H239.086ZM254.235 56.6209C254.199 57.0429 254.532 57.4053 254.956 57.4053H262.367C262.79 57.4053 263.123 57.043 263.087 56.6209L261.657 39.8068L260.694 21.4022C260.674 21.0181 260.356 20.7169 259.972 20.7169H257.351C256.966 20.7169 256.649 21.0181 256.629 21.4022L255.666 39.8068L254.235 56.6209Z" fill="#34250F"/>
<path d="M238.564 86.9221L232.056 80.4142C231.601 79.9587 231.923 79.1798 232.568 79.1798H243.918C244.099 79.1798 244.273 79.2476 244.407 79.3698L251.506 85.8778C251.992 86.3234 251.677 87.1339 251.017 87.1339H239.075C238.884 87.1339 238.7 87.0577 238.564 86.9221Z" fill="#982828"/>
<path d="M265.316 86.8984L259.044 80.0289C258.62 79.5648 258.949 78.8182 259.578 78.8182H270.663C270.85 78.8182 271.029 78.8903 271.164 79.0193L278.332 85.8887C278.802 86.3396 278.483 87.1339 277.832 87.1339H265.85C265.646 87.1339 265.453 87.0484 265.316 86.8984Z" fill="#982828"/>
<path d="M232.357 79.9029C231.924 79.9029 231.589 79.5259 231.639 79.0964L240.706 1.00126C240.748 0.63662 241.057 0.361557 241.424 0.361557H261.436C261.803 0.361557 262.112 0.636617 262.154 1.00126L271.222 79.0964C271.272 79.5259 270.936 79.9029 270.504 79.9029H259.167C258.791 79.9029 258.478 79.6154 258.446 79.2412L257.144 63.9604C257.112 63.5861 256.799 63.2986 256.424 63.2986H246.437C246.061 63.2986 245.748 63.5861 245.716 63.9604L244.414 79.2412C244.383 79.6154 244.069 79.9029 243.694 79.9029H232.357ZM247.004 49.3899C246.968 49.8119 247.301 50.1743 247.725 50.1743H255.136C255.559 50.1743 255.892 49.8119 255.856 49.3899L254.425 32.5758L253.463 14.1712C253.443 13.7871 253.125 13.4859 252.741 13.4859H250.12C249.735 13.4859 249.418 13.7871 249.397 14.1712L248.435 32.5758L247.004 49.3899Z" fill="#FF8A00"/>
<path d="M213.991 87.1339C213.761 87.1339 213.544 87.0245 213.408 86.8391L208.207 79.7635C208.102 79.6204 208.053 79.4437 208.07 79.2669L213.55 21.5083C213.59 21.0839 213.256 20.7169 212.83 20.7169H202.303C202.051 20.7169 201.818 20.5857 201.686 20.3705L197.473 13.4669C197.309 13.1982 197.337 12.8544 197.544 12.6166L201.746 7.7677C201.845 7.65381 201.976 7.57361 202.123 7.5383L231.474 0.465735C231.739 0.401841 232.018 0.492583 232.194 0.7004L237.881 7.39007C237.992 7.52081 238.053 7.6868 238.053 7.85838V19.9938C238.053 20.3932 237.729 20.7169 237.33 20.7169H227.049C226.649 20.7169 226.326 21.0406 226.326 21.44V86.4108C226.326 86.8102 226.002 87.1339 225.603 87.1339H213.991Z" fill="#34250F"/>
<path d="M213.251 86.8406L208.204 80.0133C207.846 79.5283 208.204 78.8435 208.806 78.8607L219.671 79.1711C219.865 79.1766 220.05 79.2606 220.182 79.404L226.185 85.9209C226.612 86.3843 226.283 87.1339 225.653 87.1339H213.832C213.603 87.1339 213.387 87.0251 213.251 86.8406Z" fill="#982828"/>
<path d="M226.267 20.7214L220.333 13.8977C219.92 13.4224 220.27 12.6828 220.899 12.7004L231.316 12.9917C231.508 12.9971 231.691 13.079 231.823 13.2193L237.964 19.7516C238.398 20.2132 238.07 20.97 237.437 20.97H226.813C226.603 20.97 226.404 20.8793 226.267 20.7214Z" fill="#982828"/>
<path d="M201.684 20.4638L197.562 14.1317C197.249 13.651 197.594 13.0149 198.167 13.0141L208.252 13.0011C208.651 13.0006 208.976 13.3245 208.976 13.7242V20.0693C208.976 20.4687 208.652 20.7924 208.253 20.7924H202.29C202.045 20.7924 201.817 20.6688 201.684 20.4638Z" fill="#982828"/>
<path d="M208.329 79.9029V13.4859H196.836V0.361557H232.268V13.4859H220.775V79.9029H208.329Z" fill="#FF8A00"/>
<path d="M165.329 87.1339C165.131 87.1339 164.942 87.0528 164.806 86.9095L158.056 79.8227C157.889 79.647 157.821 79.3991 157.875 79.1627L174.181 7.91522C174.228 7.71035 174.362 7.53602 174.547 7.43761L187.442 0.60437C187.716 0.459227 188.052 0.504794 188.277 0.717654L195.363 7.41182C195.487 7.52858 195.565 7.68517 195.585 7.85407L204.696 86.3274C204.746 86.757 204.411 87.1339 203.978 87.1339H192.303C192.096 87.1339 191.898 87.045 191.761 86.8897L185.614 79.9344C185.406 79.7 185.374 79.3589 185.532 79.0891L189.922 71.6192C190.205 71.1371 189.858 70.5297 189.299 70.5297H179.911C179.536 70.5297 179.222 70.8172 179.191 71.1914L177.889 86.4722C177.857 86.8464 177.544 87.1339 177.168 87.1339H165.329ZM180.479 56.6209C180.443 57.0429 180.776 57.4053 181.199 57.4053H188.61C189.034 57.4053 189.367 57.043 189.331 56.6209L187.9 39.8068L186.937 21.4022C186.917 21.0181 186.6 20.7169 186.215 20.7169H183.594C183.209 20.7169 182.892 21.0181 182.872 21.4022L181.909 39.8068L180.479 56.6209Z" fill="#34250F"/>
<path d="M164.808 86.9221L158.3 80.4142C157.844 79.9587 158.167 79.1798 158.811 79.1798H170.161C170.342 79.1798 170.517 79.2476 170.65 79.3698L177.75 85.8778C178.236 86.3234 177.92 87.1339 177.261 87.1339H165.319C165.127 87.1339 164.943 87.0577 164.808 86.9221Z" fill="#982828"/>
<path d="M191.559 86.8984L185.287 80.0289C184.863 79.5648 185.193 78.8182 185.821 78.8182H196.907C197.093 78.8182 197.273 78.8903 197.407 79.0193L204.575 85.8887C205.046 86.3396 204.727 87.1339 204.075 87.1339H192.093C191.89 87.1339 191.696 87.0484 191.559 86.8984Z" fill="#982828"/>
<path d="M158.6 79.9029C158.168 79.9029 157.832 79.5259 157.882 79.0964L166.95 1.00126C166.992 0.63662 167.301 0.361557 167.668 0.361557H187.68C188.047 0.361557 188.356 0.636617 188.398 1.00126L197.465 79.0964C197.515 79.5259 197.18 79.9029 196.747 79.9029H185.41C185.034 79.9029 184.721 79.6154 184.69 79.2412L183.388 63.9604C183.356 63.5862 183.043 63.2986 182.667 63.2986H172.68C172.305 63.2986 171.991 63.5861 171.96 63.9604L170.658 79.2412C170.626 79.6154 170.313 79.9029 169.937 79.9029H158.6ZM173.248 49.3899C173.212 49.8119 173.544 50.1743 173.968 50.1743H181.379C181.803 50.1743 182.136 49.8119 182.1 49.3899L180.669 32.5758L179.706 14.1712C179.686 13.7871 179.369 13.4859 178.984 13.4859H176.363C175.978 13.4859 175.661 13.7871 175.641 14.1712L174.678 32.5758L173.248 49.3899Z" fill="#FF5C00"/>
<path d="M142.404 87.1339C142.173 87.1339 141.957 87.0245 141.821 86.8391L136.62 79.7635C136.515 79.6204 136.466 79.4437 136.483 79.2669L141.963 21.5083C142.003 21.0839 141.669 20.7169 141.243 20.7169H130.716C130.464 20.7169 130.23 20.5857 130.099 20.3705L125.886 13.4669C125.722 13.1982 125.75 12.8544 125.956 12.6166L130.159 7.7677C130.257 7.65381 130.389 7.57361 130.536 7.5383L159.887 0.465735C160.152 0.401841 160.431 0.492583 160.607 0.7004L166.293 7.39007C166.405 7.52081 166.466 7.6868 166.466 7.85838V19.9938C166.466 20.3932 166.142 20.7169 165.742 20.7169H155.462C155.062 20.7169 154.738 21.0406 154.738 21.44V86.4108C154.738 86.8102 154.415 87.1339 154.015 87.1339H142.404Z" fill="#34250F"/>
<path d="M141.663 86.8406L136.617 80.0133C136.259 79.5283 136.616 78.8435 137.219 78.8607L148.083 79.1711C148.278 79.1766 148.462 79.2606 148.595 79.404L154.598 85.9209C155.024 86.3843 154.696 87.1339 154.066 87.1339H142.245C142.015 87.1339 141.8 87.0251 141.663 86.8406Z" fill="#982828"/>
<path d="M154.68 20.7214L148.746 13.8977C148.333 13.4224 148.682 12.6828 149.312 12.7004L159.729 12.9917C159.921 12.9971 160.104 13.079 160.235 13.2193L166.377 19.7516C166.81 20.2132 166.483 20.97 165.85 20.97H155.225C155.016 20.97 154.817 20.8793 154.68 20.7214Z" fill="#982828"/>
<path d="M130.097 20.4638L125.975 14.1317C125.662 13.651 126.007 13.0149 126.58 13.0141L136.664 13.0011C137.064 13.0006 137.388 13.3245 137.388 13.7242V20.0693C137.388 20.4687 137.065 20.7924 136.665 20.7924H130.703C130.458 20.7924 130.23 20.6688 130.097 20.4638Z" fill="#982828"/>
<path d="M136.976 79.9029C136.577 79.9029 136.253 79.5791 136.253 79.1798V14.209C136.253 13.8096 135.929 13.4859 135.53 13.4859H125.249C124.849 13.4859 124.526 13.1621 124.526 12.7628V1.08466C124.526 0.685301 124.849 0.361557 125.249 0.361557H159.958C160.357 0.361557 160.681 0.685301 160.681 1.08466V12.7628C160.681 13.1621 160.357 13.4859 159.958 13.4859H149.677C149.277 13.4859 148.954 13.8096 148.954 14.209V79.1798C148.954 79.5791 148.63 79.9029 148.231 79.9029H136.976Z" fill="#FF5C00"/>
<path d="M95.9465 87.1339C95.7283 87.1339 95.5217 87.0354 95.3844 86.8658L89.6383 79.7677C89.5208 79.6225 89.464 79.4374 89.4799 79.2512L95.5596 8.08311C95.5849 7.78714 95.7886 7.53674 96.0732 7.45177L119.4 0.488527C119.661 0.410633 119.944 0.485948 120.131 0.683381L126.496 7.38327C126.624 7.51766 126.695 7.69594 126.695 7.88131V19.9938C126.695 20.3932 126.371 20.7169 125.972 20.7169H109.068C108.668 20.7169 108.345 21.0406 108.345 21.44V38.7506C108.345 39.3288 108.99 39.6732 109.47 39.3514L118.592 33.243C118.886 33.0459 119.28 33.0911 119.522 33.3497L125.65 39.8966C125.776 40.0306 125.845 40.2072 125.845 40.3907V52.5063C125.845 52.9057 125.522 53.2294 125.122 53.2294H109.068C108.668 53.2294 108.345 53.5532 108.345 53.9525V72.6877C108.345 73.2592 108.977 73.6049 109.458 73.2966L118.978 67.1985C119.262 67.0163 119.635 67.0552 119.875 67.2922L126.479 73.7972C126.617 73.9331 126.695 74.1187 126.695 74.3123V86.4108C126.695 86.8102 126.371 87.1339 125.972 87.1339H95.9465Z" fill="#34250F"/>
<path d="M95.0235 86.8814L89.7552 80.735C89.3531 80.266 89.6864 79.5413 90.3042 79.5413L119.877 79.5413C120.075 79.5413 120.264 79.6225 120.401 79.7658L126.254 85.9121C126.693 86.3725 126.367 87.1339 125.731 87.1339L95.5726 87.1339C95.3615 87.1339 95.1609 87.0417 95.0235 86.8814Z" fill="#982828"/>
<path d="M89.8167 79.9029C89.4173 79.9029 89.0936 79.5791 89.0936 79.1798V1.08466C89.0936 0.685305 89.4173 0.361557 89.8167 0.361557H119.464C119.863 0.361557 120.187 0.685301 120.187 1.08466V12.7628C120.187 13.1621 119.863 13.4859 119.464 13.4859H102.56C102.161 13.4859 101.837 13.8096 101.837 14.209V32.151C101.837 32.5503 102.161 32.8741 102.56 32.8741H118.614C119.014 32.8741 119.337 33.1978 119.337 33.5972V45.2753C119.337 45.6746 119.014 45.9984 118.614 45.9984H102.56C102.161 45.9984 101.837 46.3221 101.837 46.7215V66.0555C101.837 66.4548 102.161 66.7786 102.56 66.7786H119.464C119.863 66.7786 120.187 67.1023 120.187 67.5017V79.1798C120.187 79.5791 119.863 79.9029 119.464 79.9029H89.8167Z" fill="#FF5C00"/>
<path d="M50.7691 87.1339C50.3697 87.1339 50.046 86.8102 50.046 86.4108V2.84374C50.046 2.46703 50.3352 2.15343 50.7107 2.123L67.9849 0.723099C74.5831 0.723099 79.3403 3.69115 82.2565 6.71971C85.2021 9.71499 86.778 14.6905 86.9842 21.6462C87.0431 23.5099 87.0726 25.1407 87.0726 26.5385C87.102 27.9363 87.102 29.3341 87.0726 30.7319C87.0726 32.1297 87.0431 33.7604 86.9842 35.6242C86.8664 39.9507 86.2183 43.4951 85.0401 46.2574C83.9654 48.8416 82.3235 50.8578 80.1144 52.3061C79.8432 52.4839 79.7087 52.8137 79.7943 53.1266L88.8437 86.2201C88.9695 86.6802 88.6232 87.1339 88.1462 87.1339H74.3549C74.0797 87.1339 73.8285 86.9778 73.7066 86.7311L70.1932 79.6204C70.1569 79.5471 70.1334 79.4681 70.1236 79.3868L67.2664 55.7299C67.2226 55.3667 66.9144 55.0935 66.5485 55.0935H64.0244C63.6251 55.0935 63.3013 55.4172 63.3013 55.8166V86.4108C63.3013 86.8102 62.9776 87.1339 62.5782 87.1339H50.7691ZM63.3013 41.1912C63.3013 41.5905 63.6251 41.9143 64.0244 41.9143H67.9849C69.8406 41.9143 71.2398 41.4317 72.1824 40.4665C73.125 39.5014 73.6405 38.1535 73.7289 36.4229C73.8172 34.7921 73.8761 33.0948 73.9056 31.3309C73.935 29.5338 73.935 27.7532 73.9056 25.9893C73.8761 24.1922 73.8172 22.4782 73.7289 20.8474C73.6405 19.0836 73.125 17.7357 72.1824 16.8038C71.2398 15.8387 69.8406 15.3561 67.9849 15.3561H64.0244C63.6251 15.3561 63.3013 15.6798 63.3013 16.0792V41.1912Z" fill="#34250F"/>
<path d="M73.3369 86.7787L69.5115 80.3049C69.2223 79.8155 69.5849 79.1992 70.1531 79.2142L82.287 79.5335C82.4783 79.5385 82.6597 79.6191 82.7916 79.7576L88.6531 85.9121C89.0915 86.3725 88.7652 87.1339 88.1294 87.1339H73.9595C73.7037 87.1339 73.467 86.9988 73.3369 86.7787Z" fill="#FF5C00"/>
<path d="M49.4762 86.7696L45.964 80.6232C45.6886 80.1411 46.0366 79.5413 46.5919 79.5413H58.3362C58.578 79.5413 58.8038 79.6622 58.9379 79.8633L63.0355 86.0097C63.3558 86.4903 63.0114 87.1339 62.4338 87.1339H50.1041C49.8446 87.1339 49.605 86.9949 49.4762 86.7696Z" fill="#982828"/>
<path d="M47.1536 79.9029C46.7542 79.9029 46.4305 79.5791 46.4305 79.1798V1.08466C46.4305 0.685305 46.7542 0.361557 47.1536 0.361557H63.5389C69.8316 0.361557 74.3686 1.86953 77.1497 4.88547C79.959 7.86827 81.4619 12.823 81.6586 19.7498C81.7148 21.6057 81.7429 23.2297 81.7429 24.6217C81.7709 26.0136 81.7709 27.4056 81.7429 28.7976C81.7429 30.1896 81.7148 31.8135 81.6586 33.6695C81.5462 37.978 80.9282 41.5076 79.8045 44.2584C78.7803 46.8298 77.2161 48.8365 75.1119 50.2784C74.8493 50.4584 74.7203 50.7821 74.8033 51.0894L82.3394 78.9912C82.4635 79.4508 82.1174 79.9029 81.6413 79.9029H69.7563C69.4216 79.9029 69.1307 79.6732 69.053 79.3476L62.9128 53.613C62.8352 53.2874 62.5442 53.0577 62.2095 53.0577H59.7952C59.3959 53.0577 59.0721 53.3814 59.0721 53.7808V79.1798C59.0721 79.5791 58.7484 79.9029 58.349 79.9029H47.1536ZM59.0721 39.2103C59.0721 39.6096 59.3959 39.9334 59.7952 39.9334H63.5389C65.3087 39.9334 66.6431 39.4528 67.5421 38.4917C68.441 37.5305 68.9326 36.1883 69.0169 34.4649C69.1012 32.8409 69.1574 31.1507 69.1855 29.3941C69.2136 27.6045 69.2136 25.8314 69.1855 24.0748C69.1574 22.2851 69.1012 20.5783 69.0169 18.9543C68.9326 17.1978 68.441 15.8555 67.5421 14.9276C66.6431 13.9664 65.3087 13.4859 63.5389 13.4859H59.7952C59.3959 13.4859 59.0721 13.8096 59.0721 14.209V39.2103Z" fill="#FF5C00"/>
<path d="M9.49019 87.1339C9.29841 87.1339 9.11449 87.0578 8.97888 86.9221L2.22443 80.1677C2.05838 80.0016 1.9833 79.7653 2.0231 79.5338L15.4496 1.44827C15.5513 0.856832 16.2876 0.639514 16.6941 1.08095L22.4975 7.38235C22.6219 7.51742 22.6903 7.69476 22.6887 7.87838L22.5224 27.3809L21.1526 43.9615C21.1178 44.3829 21.4504 44.7442 21.8733 44.7442H23.6361C23.9722 44.7442 24.2639 44.5126 24.3403 44.1853L28.243 27.4539C28.2544 27.4054 28.2707 27.3581 28.2917 27.313L40.4173 1.26713C40.6649 0.73522 41.4096 0.704136 41.7007 1.21356L45.2006 7.3385C45.2938 7.50147 45.3199 7.69426 45.2734 7.87613L37.0037 40.2697C36.9693 40.4044 36.9745 40.5463 37.0187 40.6782L52.2578 86.1812C52.4147 86.6496 52.0661 87.1339 51.5721 87.1339L36.5044 87.1339C36.2729 87.1339 36.0554 87.0231 35.9193 86.8358L30.9967 80.0583C30.9227 79.9565 30.8766 79.8371 30.8629 79.7119L28.4654 57.7747C28.3853 57.0415 27.3877 56.8847 27.0866 57.5579L22.1635 68.5627C22.122 68.6556 22.1005 68.7562 22.1005 68.858V86.4108C22.1005 86.8102 21.7767 87.1339 21.3774 87.1339H9.49019Z" fill="#34250F"/>
<path d="M73.3369 86.7787L69.5115 80.3049C69.2223 79.8155 69.5849 79.1992 70.1531 79.2142L82.287 79.5335C82.4783 79.5385 82.6597 79.6191 82.7916 79.7576L88.6531 85.9121C89.0915 86.3725 88.7652 87.1339 88.1294 87.1339H73.9595C73.7037 87.1339 73.467 86.9988 73.3369 86.7787Z" fill="#982828"/>
<path d="M35.7292 86.8311L31.3389 80.6847C30.9971 80.2061 31.3392 79.5413 31.9273 79.5413H44.7126C44.8877 79.5413 45.0569 79.6049 45.1887 79.7202L52.2132 85.8666C52.7157 86.3063 52.4047 87.1339 51.737 87.1339H36.3176C36.0841 87.1339 35.8649 87.0211 35.7292 86.8311Z" fill="#982828"/>
<path d="M8.97888 86.9221L2.15219 80.0954C1.69077 79.634 2.02835 78.8457 2.68071 78.8612L15.7506 79.1724C15.9483 79.1771 16.1354 79.2626 16.2684 79.4089L22.1916 85.9244C22.6139 86.3889 22.2843 87.1339 21.6566 87.1339H9.49019C9.29841 87.1339 9.11449 87.0577 8.97888 86.9221Z" fill="#982828"/>
<path d="M2.68274 79.9029C2.28339 79.9029 1.95964 79.5792 1.95964 79.1798V1.08466C1.95964 0.685306 2.28338 0.361557 2.68274 0.361557H15.6561C16.0717 0.361557 16.4017 0.711006 16.378 1.1259L15.2913 20.1499L13.9216 36.7305C13.8868 37.1519 14.2194 37.5132 14.6422 37.5132H16.4051C16.7411 37.5132 17.0329 37.2816 17.1093 36.9543L21.029 20.1499L27.1088 0.867219C27.2037 0.566231 27.4829 0.361557 27.7985 0.361557H40.6964C41.1986 0.361557 41.5479 0.860977 41.3756 1.33274L29.8068 33.0074C29.7506 33.1613 29.7483 33.3297 29.8003 33.4851L45.0268 78.9501C45.1836 79.4186 44.8351 79.9029 44.3411 79.9029H31.4164C31.0996 79.9029 30.8198 79.6967 30.7258 79.3942L21.6199 50.0671C21.4107 49.3934 20.4594 49.3873 20.2416 50.0582L16.457 61.7165C16.4336 61.7886 16.4217 61.8639 16.4217 61.9397V79.1798C16.4217 79.5791 16.098 79.9029 15.6986 79.9029L2.68274 79.9029Z" fill="#FF5C00"/>
</svg>
