<svg width="7866" height="7879" viewBox="0 0 7866 7879" fill="none" xmlns="http://www.w3.org/2000/svg">
<path opacity="0.7" d="M3980.58 2147.68C3980.58 2147.68 3987.25 1564.08 3994.04 980.378C3994.04 598.605 3994.62 219.823 3994.85 1.32129H4077.81C4066.3 218.557 4047.08 598.835 4027.41 982.45C4004.28 1565.01 3980.58 2147.68 3980.58 2147.68Z" fill="#FFE566"/>
<path opacity="0.7" d="M4245.22 1.32129H4267.77L4218.18 476.179L4245.22 1.32129Z" fill="#FFE566"/>
<path opacity="0.7" d="M4136.72 2434.87C4136.72 2434.87 4213 1821.48 4289.29 1208.66C4354.87 650.383 4419.42 97.9728 4430.7 1.32129H4488.23C4479.6 58.852 4395.03 632.203 4308.96 1211.65C4222.9 1823.09 4136.72 2434.87 4136.72 2434.87Z" fill="#FFE566"/>
<path opacity="0.7" d="M4519.18 1560.4C4519.18 1560.4 4629.3 1071.16 4738.95 582.381C4782.9 375.501 4826.51 171.037 4862.87 1.32129H4940.65C4893.02 172.072 4835.14 381.024 4776.81 591.586C4647.82 1075.76 4519.18 1560.4 4519.18 1560.4Z" fill="#FFE566"/>
<path opacity="0.7" d="M5385.71 1.32129H5437.37L4974.48 1165.05L5385.71 1.32129Z" fill="#FFE566"/>
<path opacity="0.7" d="M5565.43 704.922C5565.43 704.922 5713.98 383.44 5862.98 61.8436C5872.19 41.5928 5881.39 21.5721 5890.02 1.32129H5952.5C5937.66 28.4758 5922.35 55.4001 5906.48 82.8998C5735.95 394.141 5565.43 704.922 5565.43 704.922Z" fill="#FFE566"/>
<path opacity="0.7" d="M5467.63 1410.71C5159.84 1906.62 4852.63 2402.08 4852.63 2402.08C4852.63 2402.08 5146.04 1897.88 5439.44 1393.79L6014.75 378.262L6222.43 1.32129H6370.4C6209.32 248.243 6093.34 427.048 6093.34 427.048C6093.34 427.048 5780.48 918.936 5467.63 1410.71Z" fill="#FFE566"/>
<path opacity="0.7" d="M6568.08 1.32129H6642.29L5883.92 1061.96L6568.08 1.32129Z" fill="#FFE566"/>
<path opacity="0.7" d="M6869.66 1.32129H6948.59L6235.21 891.09L6869.66 1.32129Z" fill="#FFE566"/>
<path opacity="0.7" d="M6013.03 1476.87L5311.15 2293.8C5311.15 2293.8 5653.23 1876.82 5995.88 1460.42C6334.85 1040.9 6674.74 621.848 6674.74 621.848C6674.74 621.848 6902.68 336.151 7169.51 0.516602H7305.39C6995.88 351.339 6720.65 663.96 6720.65 663.96C6720.65 663.96 6366.84 1070.13 6013.03 1476.87Z" fill="#FFE566"/>
<path opacity="0.7" d="M7021.77 731.616C7021.77 731.616 6666.92 1086 6312.53 1440.51C5961.82 1798.46 5611.46 2156.42 5611.46 2156.42C5611.46 2156.42 5947.44 1785.12 6283.88 1414.27C6616.17 1039.4 6948.01 664.42 6948.01 664.42L7522.51 1.32129H7769.9C7759.66 11.3316 7749.41 21.1118 7738.71 31.1222L7021.77 731.616Z" fill="#FFE566"/>
<path opacity="0.7" d="M6972.86 1155.27L6102.31 1930.78C5671.06 2323.03 5240.5 2715.5 5240.5 2715.5C5240.5 2715.5 5660.13 2311.18 6079.53 1906.16L6910.15 1086.58C6910.15 1086.58 7320.81 672.358 7731.46 258.137C7776.57 212.113 7821.67 166.088 7865.62 120.063V378.146C7861.02 381.905 7856.42 385.74 7851.82 389.652C7411.94 772.116 6972.86 1155.27 6972.86 1155.27Z" fill="#FFE566"/>
<path opacity="0.7" d="M6597.19 1709.64L7716.16 725.517L7865.63 590.09V699.628L7763.8 778.791L6597.19 1709.64Z" fill="#FFE566"/>
<path opacity="0.7" d="M6135.91 2292.31C5641.14 2660.5 5145.57 3028.7 5145.57 3028.7C5145.57 3028.7 5634.58 2652.79 6123.59 2276.89L7097.13 1518.29L7865.16 910.881V1035.26L7131.42 1564.54L6135.91 2292.31Z" fill="#FFE566"/>
<path opacity="0.7" d="M6906.02 2190.82C6471.32 2439.01 6036.5 2687.77 6036.5 2687.77C6036.5 2687.77 6461.08 2423.13 6886.11 2157.46C7307.58 1887.64 7729.51 1617.93 7729.51 1617.93L7865.63 1528.76V1657.98L7781.17 1704L6906.02 2190.82Z" fill="#FFE566"/>
<path opacity="0.7" d="M7865.63 1937.11V1942.75L7804.76 1971.29L7865.63 1937.11Z" fill="#FFE566"/>
<path opacity="0.7" d="M7865.63 2157.46V2214.3L6638.73 2733.91L7865.63 2157.46Z" fill="#FFE566"/>
<path opacity="0.7" d="M7865.63 2657.97V2694.68C7602.48 2769.01 7381.22 2831.83 7381.22 2831.83L7865.63 2657.97Z" fill="#FFE566"/>
<path opacity="0.7" d="M5672.67 3515.99C5672.67 3515.99 6236.47 3371.35 6801.31 3226.26C7258.56 3103.15 7711.21 2981.64 7865.86 2939.87V3031.35L6809.48 3258.59L5672.67 3515.99Z" fill="#FFE566"/>
<path opacity="0.7" d="M7865.63 3202.9V3228.56L7346.35 3310.83L7865.63 3202.9Z" fill="#FFE566"/>
<path opacity="0.7" d="M7865.63 3417.49V3426.01L7717.66 3441.08L7865.63 3417.49Z" fill="#FFE566"/>
<path opacity="0.7" d="M6068.83 3766.82L7142.12 3670.4L7865.63 3599.87V3649.34L7143.16 3693.41C6605.93 3730.46 6068.83 3766.82 6068.83 3766.82Z" fill="#FFE566"/>
<path opacity="0.7" d="M6380.18 3884.76L7379.26 3842.76C7548.75 3834.01 7716.16 3825.04 7865.63 3817.33V3886.37L7381.22 3882.22L6380.18 3884.76Z" fill="#FFE566"/>
<path opacity="0.7" d="M2139.14 3942.17C2139.14 3942.17 1556.81 3950.92 975.176 3960.12C595.474 3970.13 218.072 3980.14 0.14624 3986.13V3903.28C218.763 3908.34 594.668 3917.32 974.601 3926.87L2139.14 3942.17Z" fill="#FFE566"/>
<path opacity="0.7" d="M0.14624 3735.75V3713.2L469.712 3749.91L0.14624 3735.75Z" fill="#FFE566"/>
<path opacity="0.7" d="M2421.27 3776.6L1192.99 3657.4L0.14624 3550.85V3493.32L1196.78 3637.72L2421.27 3776.6Z" fill="#FFE566"/>
<path opacity="0.7" d="M1538.98 3417.49C1538.98 3417.49 1047.2 3320.61 555.778 3224.19L0.14624 3121.67V3045.96C166.64 3087.27 365.006 3136.74 565.673 3186.79L1538.98 3417.49Z" fill="#FFE566"/>
<path opacity="0.7" d="M0.14624 2606.2V2556.37L1133.85 2972.9L0.14624 2606.2Z" fill="#FFE566"/>
<path opacity="0.7" d="M659.678 2394.83C659.678 2394.83 333.824 2254.34 8.8909 2114.31C6.01437 2113.04 3.2529 2111.78 0.14624 2110.74V2054.36C10.1566 2059.77 20.1669 2064.83 29.8321 2070.24C345.33 2232.36 659.678 2394.83 659.678 2394.83Z" fill="#FFE566"/>
<path opacity="0.7" d="M1365.12 2472.26L2370.41 3060.11C2370.41 3060.11 1858.85 2780.51 1347.28 2500.57C832.73 2226.61 318.061 1952.3 318.061 1952.3L0.14624 1787.65V1647.85L366.041 1872.79C366.041 1872.79 865.523 2173.1 1365.12 2472.26Z" fill="#FFE566"/>
<path opacity="0.7" d="M0.14624 1452.94V1384.47L1009.12 2067.13L0.14624 1452.94Z" fill="#FFE566"/>
<path opacity="0.7" d="M0.14624 1161.14V1090.84L825.596 1717.92L0.14624 1161.14Z" fill="#FFE566"/>
<path opacity="0.7" d="M1417.01 1925.03C1835.49 2265.61 2253.28 2606.19 2253.28 2606.19C2253.28 2606.19 1828.24 2274.82 1403.43 1944.02C976.212 1615.86 548.529 1288.17 548.529 1288.17L0.14624 873.485V746.918C318.866 1014.21 585.924 1237.77 585.924 1237.77L1417.01 1925.03Z" fill="#FFE566"/>
<path opacity="0.7" d="M1373.06 1627.14C1739.87 1968.18 2106.8 2308.76 2106.8 2308.76C2106.8 2308.76 1727.1 1982.56 1347.4 1655.79L580.286 1010.98L0.14624 533.94V307.499L647.136 936.77C647.136 936.77 1010.27 1281.95 1373.06 1627.14Z" fill="#FFE566"/>
<path opacity="0.7" d="M1068.61 972.209C1068.61 972.209 1467.29 1396.79 1865.87 1822.05C2268.58 2242.6 2672.45 2662 2672.45 2662C2672.45 2662 2256.61 2253.65 1841.13 1844.03C1421.15 1439.93 1001.76 1035.84 1001.76 1035.84C1001.76 1035.84 577.524 636.23 153.293 237.197L0.14624 95.9017V1.32129H180.678L280.781 113.506C674.521 542.34 1068.61 972.209 1068.61 972.209Z" fill="#FFE566"/>
<path opacity="0.7" d="M1635.74 1336.26L622.281 241.799L392.849 1.32129H517.345L674.749 194.164L1635.74 1336.26Z" fill="#FFE566"/>
<path opacity="0.7" d="M2226.7 1778.44L2987.83 2749.79L2210.82 1790.18C1818.12 1313.25 1426.91 835.746 1426.91 835.746C1426.91 835.746 1091.96 434.412 730.671 1.32129H864.027L1472.93 801.343L2226.7 1778.44Z" fill="#FFE566"/>
<path opacity="0.7" d="M1113.36 1.32129H1113.94L1115.44 3.8523L1113.36 1.32129Z" fill="#FFE566"/>
<path opacity="0.7" d="M2105.77 1011.68L2625.04 1868.19C2625.04 1868.19 2348.89 1449.71 2072.74 1031.7C1790.84 616.209 1509.75 201.298 1509.75 201.298L1371.21 1.32129H1509.98C1562.56 92.1047 1595.24 149.06 1595.24 149.06C1595.24 149.06 1850.33 580.31 2105.77 1011.68Z" fill="#FFE566"/>
<path opacity="0.7" d="M1792.34 1.32129H1803.39L1859.54 114.656L1792.34 1.32129Z" fill="#FFE566"/>
<path opacity="0.7" d="M2020.51 1.32129H2080.69L2655.76 1265.5L2020.51 1.32129Z" fill="#FFE566"/>
<path opacity="0.7" d="M2530.8 1.32129H2570.73C2658.06 279.54 2733.08 520.823 2733.08 520.823C2733.08 520.823 2638.85 278.274 2530.8 1.32129Z" fill="#FFE566"/>
<path opacity="0.7" d="M3462.34 2209.81L3141.32 1087.62C2998.07 605.509 2854.93 125.012 2818.11 1.32129H2911.2C2948.13 151.822 3060.78 612.873 3174 1079.33L3462.34 2209.81Z" fill="#FFE566"/>
<path opacity="0.7" d="M3084.14 1.32129H3110.72L3210.93 537.737L3084.14 1.32129Z" fill="#FFE566"/>
<path opacity="0.7" d="M3300.45 1.32129H3309.66L3330.94 164.938L3300.45 1.32129Z" fill="#FFE566"/>
<path opacity="0.7" d="M3700.64 1803.53C3700.64 1803.53 3637.93 1268.15 3575.22 733.457C3542.2 467.205 3509.52 201.643 3484.09 1.32129H3533.68C3551.4 201.643 3574.76 464.904 3598 729.085C3649.2 1266.54 3700.64 1803.53 3700.64 1803.53Z" fill="#FFE566"/>
<path opacity="0.7" d="M3810.06 1493.32C3810.06 1493.32 3775.54 993.265 3741.02 493.209C3728.14 321.882 3713.75 152.397 3702.02 1.32129H3771.05C3773.81 152.052 3777.15 320.847 3780.26 491.138C3794.64 992.23 3810.06 1493.32 3810.06 1493.32Z" fill="#FFE566"/>
<path opacity="0.7" d="M3779.22 7007.18C3779.22 7007.18 3769.56 7430.26 3759.31 7853.91V7879H3713.29C3714.1 7869.79 3714.9 7861.05 3715.71 7851.84C3747.46 7429.22 3779.22 7007.18 3779.22 7007.18Z" fill="#FFE566"/>
<path opacity="0.7" d="M3332.44 7879H3290.21L3484.09 6777.4L3332.44 7879Z" fill="#FFE566"/>
<path opacity="0.7" d="M2883.12 7879H2846.76L3003.25 7366.17C3003.25 7366.17 2948.71 7601.01 2883.12 7879Z" fill="#FFE566"/>
<path opacity="0.7" d="M2357.18 7879H2336.81L2467.64 7579.95L2357.18 7879Z" fill="#FFE566"/>
<path opacity="0.7" d="M1830.31 7879H1822.6C1843.09 7844.48 1856.43 7823.08 1856.43 7823.08L1830.31 7879Z" fill="#FFE566"/>
<path opacity="0.7" d="M2292.75 6536.35C2292.75 6536.35 2075.62 6899.94 1858.5 7263.08C1718.24 7503.9 1579.14 7742.65 1499.51 7879H1382.27C1461.08 7763.94 1640.81 7502.52 1820.53 7240.52C2056.64 6888.09 2292.75 6536.35 2292.75 6536.35Z" fill="#FFE566"/>
<path opacity="0.7" d="M1146.16 7879H1098.52L1441.18 7433.83L1146.16 7879Z" fill="#FFE566"/>
<path opacity="0.7" d="M833.076 7879H782.104L1108.76 7500.45L833.076 7879Z" fill="#FFE566"/>
<path opacity="0.7" d="M1736.88 6437.28L728.828 7635.87L530.117 7879H401.594L676.591 7588.7L1736.88 6437.28Z" fill="#FFE566"/>
<path opacity="0.7" d="M910.857 6968.17L1439.33 6466.5C1439.33 6466.5 1192.76 6733.22 946.181 7000.5L459.011 7539.45C459.011 7539.45 325.77 7690.07 158.931 7879H0.14624V7804.9C205.991 7617.92 378.123 7462.01 378.123 7462.01C378.123 7462.01 644.49 7214.86 910.857 6968.17Z" fill="#FFE566"/>
<path opacity="0.7" d="M998.649 6532.2C1320.82 6258.36 1644.49 5984.51 1644.49 5984.51L1028.1 6565C723.192 6858.86 418.279 7151.81 418.279 7151.81L0.14624 7564.42V7354.09L346.826 7073.22C346.826 7073.22 672.565 6803.06 998.649 6532.2Z" fill="#FFE566"/>
<path opacity="0.7" d="M0.14624 7113.03V7045.61L579.25 6615.85L0.14624 7113.03Z" fill="#FFE566"/>
<path opacity="0.7" d="M1600.07 5613.1L165.259 6685.58L0.14624 6812.72V6715.5L125.103 6631.73L1600.07 5613.1Z" fill="#FFE566"/>
<path opacity="0.7" d="M843.546 5683.97L223.48 6062.18C147.425 6109.36 71.3692 6156.99 0.14624 6201.63V6121.9C64.6957 6089.1 131.201 6055.28 198.282 6020.87C520.914 5852.65 843.546 5683.97 843.546 5683.97Z" fill="#FFE566"/>
<path opacity="0.7" d="M0.14624 5594.11V5572.36L314.609 5451.55L0.14624 5594.11Z" fill="#FFE566"/>
<path opacity="0.7" d="M933.179 4594.11L111.986 4794.09C74.3608 4803.87 37.3111 4813.3 0.14624 4822.74V4769.46C33.7442 4763.6 67.227 4757.96 101.055 4751.51C517.117 4673.04 933.179 4594.11 933.179 4594.11Z" fill="#FFE566"/>
<path opacity="0.7" d="M0.14624 4175.52V4147.9L616.415 4127.31L0.14624 4175.52Z" fill="#FFE566"/>
<path opacity="0.7" d="M6999.67 4009.37C6999.67 4009.37 7422.64 4007.87 7846.18 4005.8H7865.63V4051.82L7844.22 4050.44C7421.6 4029.39 6999.67 4009.37 6999.67 4009.37Z" fill="#FFE566"/>
<path opacity="0.7" d="M7865.63 4431.18V4472.72L6777.95 4311.52L7865.63 4431.18Z" fill="#FFE566"/>
<path opacity="0.7" d="M7865.63 4877.05V4911.57L7377.65 4776.37C7377.65 4776.37 7598.34 4822.05 7865.63 4877.05Z" fill="#FFE566"/>
<path opacity="0.7" d="M7865.63 5395.17V5412.66L7603.98 5306.46L7865.63 5395.17Z" fill="#FFE566"/>
<path opacity="0.7" d="M6568.54 5510.58L7306.54 5925.49C7516.07 6040.55 7722.95 6153.65 7865.74 6232.24V6340.86C7731.12 6253.53 7507.9 6108.55 7283.99 5963.46C6926.84 5736.79 6568.54 5510.58 6568.54 5510.58Z" fill="#FFE566"/>
<path opacity="0.7" d="M7865.63 6575.01V6614.01L7491.33 6340.86L7865.63 6575.01Z" fill="#FFE566"/>
<path opacity="0.7" d="M7865.63 6877.62V6916.85L7562.55 6668.55L7865.63 6877.62Z" fill="#FFE566"/>
<path opacity="0.7" d="M6488.22 6072.19L7712.02 7048.71L7865.62 7167.92V7281.71L7665.42 7101.53L6488.22 6072.19Z" fill="#FFE566"/>
<path opacity="0.7" d="M7035.11 6879.92L6520.9 6365.02C6520.9 6365.02 6793.94 6604.46 7067.33 6844.48C7343.48 7081.05 7619.62 7317.96 7619.62 7317.96C7619.62 7317.96 7723.18 7404.6 7865.85 7525.07V7738.16C7687.74 7551.53 7543.68 7401.5 7543.68 7401.5C7543.68 7401.5 7289.63 7140.54 7035.11 6879.92Z" fill="#FFE566"/>
<path opacity="0.7" d="M6600.87 6806.05L6037.07 6175.28C6037.07 6175.28 6336.23 6475.82 6633.66 6776.82C6935.82 7074.37 7237.39 7371.81 7237.39 7371.81C7237.39 7371.81 7488.8 7614.13 7763.34 7879H7529.76C7325.41 7640.02 7158 7443.61 7158 7443.61C7158 7443.61 6879.43 7125.12 6600.87 6806.05Z" fill="#FFE566"/>
<path opacity="0.7" d="M7288.02 7879H7208.74L6696.03 7224.53L7288.02 7879Z" fill="#FFE566"/>
<path opacity="0.7" d="M5666.23 6228.56L6776.45 7636.45L6973.67 7879H6866.09L6722.72 7676.95L5666.23 6228.56Z" fill="#FFE566"/>
<path opacity="0.7" d="M5756.9 6983.59C5756.9 6983.59 5954.57 7288.73 6152.25 7594.34C6217.26 7693.06 6282.27 7790.75 6340.72 7879H6251.55C6207.02 7796.96 6159.5 7708.48 6110.83 7619.54C5934.09 7301.51 5756.9 6983.59 5756.9 6983.59Z" fill="#FFE566"/>
<path opacity="0.7" d="M5714.9 7879H5689.35L5539.77 7518.51L5714.9 7879Z" fill="#FFE566"/>
<path opacity="0.7" d="M4667.27 6923.07C4667.27 6923.07 4778.42 7331.31 4890.03 7740C4903.26 7786.72 4916.6 7833.09 4929.38 7879H4873.57C4864.83 7836.43 4856.2 7793.85 4847.45 7750.82L4667.27 6923.07Z" fill="#FFE566"/>
<path opacity="0.7" d="M4276.98 7879H4248.79L4211.51 7257.44L4276.98 7879Z" fill="#FFE566"/>
<path opacity="0.7" d="M4049.15 7879H4023.61C4025.11 7657.5 4026.14 7487.79 4026.14 7487.79C4026.14 7487.79 4036.04 7657.5 4049.15 7879Z" fill="#FFE566"/>
</svg>
