<svg width="4900" height="7363" viewBox="0 0 4900 7363" fill="none" xmlns="http://www.w3.org/2000/svg">
<path fill-rule="evenodd" clip-rule="evenodd" d="M2460.67 3558.75L2660.08 1795.56L2859.53 32.6856L2776.3 16.4278L2692.94 0L2576.92 1779.17L2460.67 3558.75Z" fill="#2B2822"/>
<path fill-rule="evenodd" clip-rule="evenodd" d="M2782.77 17.5502L2776.3 16.4278L2692.94 0L2576.92 1779.17L2543.73 2286.32L2599.71 1754.99L2782.77 17.5502Z" fill="#2B2822"/>
<path fill-rule="evenodd" clip-rule="evenodd" d="M2438.9 3803.54L2322.65 5583.15L2206.43 7362.29L2123.27 7345.86L2039.84 7329.36L2239.42 5566.72L2438.9 3803.54Z" fill="#2B2822"/>
<path fill-rule="evenodd" clip-rule="evenodd" d="M2129.63 7347.25L2123.27 7345.86L2039.84 7329.36L2239.42 5566.72L2296.19 5064.57L2257.11 5598.93L2129.63 7347.25Z" fill="#2B2822"/>
<path fill-rule="evenodd" clip-rule="evenodd" d="M2439.14 3558.31L2328.36 1779.1L2217.48 0.34082L2134.29 16.5306L2050.89 33.2985L2245.17 1795.5L2439.14 3558.31Z" fill="#2B2822"/>
<path fill-rule="evenodd" clip-rule="evenodd" d="M2140.82 15.2715L2134.29 16.5299L2050.89 33.2979L2245.17 1795.5L2300.37 2298.09L2262.99 1763.56L2140.82 15.2715Z" fill="#2B2822"/>
<path fill-rule="evenodd" clip-rule="evenodd" d="M2460.3 3803.98L2654.4 5566.62L2848.54 7329.5L2765.11 7345.69L2681.95 7361.94L2571.18 5583.18L2460.3 3803.98Z" fill="#2B2822"/>
<path fill-rule="evenodd" clip-rule="evenodd" d="M2771.78 7344.09L2765.11 7345.69L2681.95 7361.94L2571.18 5583.18L2539.58 5076.33L2593.76 5607.5L2771.78 7344.09Z" fill="#2B2822"/>
<path fill-rule="evenodd" clip-rule="evenodd" d="M2418.26 3566.85L2004.88 1892.57L1591.32 218.562L1513.74 266.928L1436.06 315.735L1927.36 1940.83L2418.26 3566.85Z" fill="#2B2822"/>
<path fill-rule="evenodd" clip-rule="evenodd" d="M1519.83 263.05L1513.74 266.927L1436.06 315.735L1927.36 1940.83L2067.25 2404.21L1939.1 1902.74L1519.83 263.05Z" fill="#2B2822"/>
<path fill-rule="evenodd" clip-rule="evenodd" d="M2481.01 3795.44L2972.35 5421.39L3463.31 7047.37L3385.83 7095.15L3308.15 7143.72L2894.7 5469.75L2481.01 3795.44Z" fill="#2B2822"/>
<path fill-rule="evenodd" clip-rule="evenodd" d="M3391.82 7091.96L3385.83 7095.15L3308.15 7143.72L2894.7 5469.75L2776.88 4992.83L2920.92 5484.1L3391.82 7091.96Z" fill="#2B2822"/>
<path fill-rule="evenodd" clip-rule="evenodd" d="M2399.82 3583L1711.66 2127.93L1023.8 672.622L956.964 749.829L890.13 826.799L1645.03 2204.66L2399.82 3583Z" fill="#2B2822"/>
<path fill-rule="evenodd" clip-rule="evenodd" d="M2499.68 3779.28L3254.58 5157.62L4009.24 6535.72L3942.54 6612.93L3875.71 6689.29L3188.02 5234.8L2499.68 3779.28Z" fill="#2B2822"/>
<path fill-rule="evenodd" clip-rule="evenodd" d="M3947.71 6606.37L3942.54 6612.93L3875.71 6689.29L3188.02 5234.8L2991.94 4820.02L3215.6 5238.27L3947.71 6606.37Z" fill="#2B2822"/>
<path fill-rule="evenodd" clip-rule="evenodd" d="M2384.48 3606.54L1468.91 2468.94L553.207 1332.22L501.916 1432.55L450.762 1532.62L1417.62 2568.76L2384.48 3606.54Z" fill="#2B2822"/>
<path fill-rule="evenodd" clip-rule="evenodd" d="M2514.99 3756.5L3482.15 4793.56L4448.95 5829.97L4397.66 5930.04L4346.26 6030.07L3430.9 4893.35L2514.99 3756.5Z" fill="#2B2822"/>
<path fill-rule="evenodd" clip-rule="evenodd" d="M2373.87 3633.95L1292.97 2892.76L211.964 2151.43L179.754 2268.47L147.409 2385.4L1260.56 3009.32L2373.87 3633.95Z" fill="#2B2822"/>
<path fill-rule="evenodd" clip-rule="evenodd" d="M2525.8 3728.64L3639.22 4352.97L4752.23 4977.73L4719.82 5094.29L4687.61 5210.61L3606.91 4469.76L2525.8 3728.64Z" fill="#2B2822"/>
<path fill-rule="evenodd" clip-rule="evenodd" d="M2368.29 3665.17L1195.9 3370.12L23.4688 3075.2L12.1768 3200.5L1.05481 3326.01L1184.64 3495.35L2368.29 3665.17Z" fill="#2B2822"/>
<path fill-rule="evenodd" clip-rule="evenodd" d="M2531.48 3697.62L3715.34 3866.97L4898.72 4037.16L4887.47 4162.23L4876.31 4287.39L3704.08 3992.03L2531.48 3697.62Z" fill="#2B2822"/>
<path fill-rule="evenodd" clip-rule="evenodd" d="M2368.36 3697.35L1184.3 3868.67L0.000244141 4040.6L10.8841 4165.53L21.6319 4291.06L1194.74 3993.97L2368.36 3697.35Z" fill="#2B2822"/>
<path fill-rule="evenodd" clip-rule="evenodd" d="M2531.59 3665.17L3704.93 3368.69L4878.25 3072.14L4889 3197.27L4899.74 3322.57L3715.85 3493.92L2531.59 3665.17Z" fill="#2B2822"/>
<path fill-rule="evenodd" clip-rule="evenodd" d="M2374.04 3728.61L1258.89 4354.5L143.701 4980.96L175.673 5097.52L207.746 5213.78L1290.52 4471.02L2374.04 3728.61Z" fill="#2B2822"/>
<path fill-rule="evenodd" clip-rule="evenodd" d="M2526.01 3634.12L3609.22 2890.89L4692.44 2148.54L4724.21 2265.07L4756.18 2381.56L3641.3 3007.65L2526.01 3634.12Z" fill="#2B2822"/>
<path fill-rule="evenodd" clip-rule="evenodd" d="M2384.82 3756.7L1414.6 4794.88L444.47 5832.76L495.42 5933.17L546.574 6032.86L1465.21 4894.95L2384.82 3756.7Z" fill="#2B2822"/>
<path fill-rule="evenodd" clip-rule="evenodd" d="M2515.46 3605.82L3434.54 2467.92L4353.65 1329.43L4404.6 1429.15L4455.61 1529.83L3485.59 2567.4L2515.46 3605.82Z" fill="#2B2822"/>
<path fill-rule="evenodd" clip-rule="evenodd" d="M2399.86 3779.56L1640.81 5158.54L881.967 6537.76L948.325 6614.5L1015.12 6691.36L1707.24 5235.58L2399.86 3779.56Z" fill="#2B2822"/>
<path fill-rule="evenodd" clip-rule="evenodd" d="M943.053 6608.78L948.325 6614.5L1015.12 6691.36L1707.24 5235.58L1904.51 4820.84L1679.48 5239.29L943.053 6608.78Z" fill="#2B2822"/>
<path fill-rule="evenodd" clip-rule="evenodd" d="M2500.26 3582.97L3192.71 2126.64L3885.13 670.923L3951.59 747.79L4018.01 824.759L3259.27 2203.51L2500.26 3582.97Z" fill="#2B2822"/>
<path fill-rule="evenodd" clip-rule="evenodd" d="M3946.42 741.872L3951.59 747.79L4018.01 824.759L3259.27 2203.51L3042.92 2596.41L3254.61 2162.59L3946.42 741.872Z" fill="#2B2822"/>
<path fill-rule="evenodd" clip-rule="evenodd" d="M2418.53 3795.24L1922.4 5421.8L1426.19 7048.22L1503.57 7096.79L1581.53 7144.81L1999.67 5470.43L2418.53 3795.24Z" fill="#2B2822"/>
<path fill-rule="evenodd" clip-rule="evenodd" d="M1497.59 7092.64L1503.57 7096.79L1581.53 7144.81L1999.67 5470.43L2119.05 4993.48L1973.45 5484.92L1497.59 7092.64Z" fill="#2B2822"/>
<path fill-rule="evenodd" clip-rule="evenodd" d="M2481.66 3567.35L2900.31 1892.09L3318.93 217.235L3396.41 265.498L3473.89 314.068L2977.86 1939.81L2481.66 3567.35Z" fill="#2B2822"/>
<path fill-rule="evenodd" clip-rule="evenodd" d="M3390.26 261.825L3396.41 265.498L3473.89 314.068L2977.86 1939.81L2836.23 2403.7L2966.16 1902.53L3390.26 261.825Z" fill="#2B2822"/>
</svg>
