<svg width="54" height="54" viewBox="0 0 54 54" fill="none" xmlns="http://www.w3.org/2000/svg">
<path d="M26.7004 5.07594C26.7255 4.9744 26.7695 4.92656 26.8076 4.89884C26.8534 4.86554 26.9206 4.84132 27 4.84132C27.0794 4.84132 27.1466 4.86554 27.1924 4.89884C27.2305 4.92656 27.2745 4.9744 27.2996 5.07594L31.2683 21.1523C31.4606 21.9312 32.0688 22.5394 32.8477 22.7317L48.9241 26.7004C49.0256 26.7255 49.0734 26.7695 49.1012 26.8076C49.1345 26.8534 49.1587 26.9206 49.1587 27C49.1587 27.0794 49.1345 27.1466 49.1012 27.1924C49.0734 27.2305 49.0256 27.2745 48.9241 27.2996L32.8477 31.2683C32.0688 31.4606 31.4606 32.0688 31.2683 32.8477L27.2996 48.9241C27.2745 49.0256 27.2305 49.0734 27.1924 49.1012C27.1466 49.1345 27.0794 49.1587 27 49.1587C26.9206 49.1587 26.8534 49.1345 26.8076 49.1012C26.7695 49.0734 26.7255 49.0256 26.7004 48.9241L22.7317 32.8477C22.5394 32.0688 21.9312 31.4606 21.1523 31.2683L5.07593 27.2996C4.9744 27.2745 4.92656 27.2305 4.89884 27.1924C4.86554 27.1466 4.84132 27.0794 4.84132 27C4.84132 26.9206 4.86554 26.8534 4.89884 26.8076C4.92656 26.7695 4.9744 26.7255 5.07594 26.7004L21.1523 22.7317C21.9312 22.5394 22.5394 21.9312 22.7317 21.1523L26.7004 5.07594Z" fill="#FECB5C" stroke="#001D0D" stroke-width="1.85143"/>
</svg>
