<?xml version="1.0" encoding="utf-8"?>
<!-- Generator: Adobe Illustrator 25.0.1, SVG Export Plug-In . SVG Version: 6.00 Build 0)  -->
<svg version="1.1" id="Calque_1" xmlns="http://www.w3.org/2000/svg" xmlns:xlink="http://www.w3.org/1999/xlink" x="0px" y="0px"
	 viewBox="0 0 113.5 119.1" style="enable-background:new 0 0 113.5 119.1;" xml:space="preserve">
<g id="Calque_2_1_">
	<g id="OBJECTS">
		<path style="fill:#FBB931;" d="M87.1,92.8c-4.6-3.2-16.3-12.9-16.3-12.9l0,0l-28.1-0.3l0,0c0,0-4.4,3.8-8.8,7.4
			c-2.8,2.3-5.7,4.6-7.4,5.8C23.3,95,6.2,100.2,0,119.1h113.5C107.3,100.2,90.2,95,87.1,92.8z"/>
		<path style="fill:#FF9267;" d="M70.8,79.9c0,0-7.9,20.9-14.2,20.9S42.7,79.6,42.7,79.6c0.2-0.4,0.5-0.8,0.7-1.2
			c3.2-6.7,2.9-19.8,2.9-19.8H67c0,0-0.3,13,2.9,19.8C70.1,78.9,70.4,79.4,70.8,79.9z"/>
		<path style="fill:#F87948;" d="M69.9,78.3c-2.2,1.5-4.4,2.8-6.8,4c-3.9,2.8-9.1,2.8-13,0c-2.4-1.2-4.6-2.5-6.8-4
			c3.2-6.7,2.9-19.8,2.9-19.8H67C67,58.6,66.7,71.6,69.9,78.3z"/>
		<polygon style="fill:#E49E0C;" points="22.6,119.1 18.7,119.1 17.1,105.2 		"/>
		<polygon style="fill:#E49E0C;" points="90.9,119.1 94.8,119.1 96.4,105.2 		"/>
		<path style="fill:#FFE6AC;" d="M42.7,79.6c0,0-7.7,4.9-8.8,7.4l7.9,19.7l14.8-5.9L42.7,79.6z"/>
		<path style="fill:#FFE6AC;" d="M56.5,100.7l14.2-20.9c0,0,7,4.3,8.3,6.8l-8.3,20L56.5,100.7z"/>
		<path style="fill:#E49E0C;" d="M60.3,106.7c0,0.8-0.7,1.5-1.5,1.5s-1.5-0.7-1.5-1.5c0-0.8,0.7-1.5,1.5-1.5
			C59.6,105.2,60.3,105.9,60.3,106.7L60.3,106.7z"/>
		<path style="fill:#E49E0C;" d="M60.3,112.5c0,0.8-0.6,1.5-1.5,1.5c-0.8,0-1.5-0.6-1.5-1.5c0-0.8,0.6-1.5,1.5-1.5c0,0,0,0,0,0
			C59.6,111,60.3,111.7,60.3,112.5z"/>
		<path style="fill:#FF9267;" d="M37.8,45.1c0,0-2.3-12.6-6-10.8s-3.9,16.9,6,20.9V45.1z"/>
		<path style="fill:#EE5C1D;" d="M35.5,49.4c0-0.8-0.1-1.7-0.2-2.5c-0.1-1-0.3-2-0.6-3c-0.5-1.8-1.3-3.5-2.2-5.1
			c-0.3-0.5-0.6-0.9-0.9-1.4c-0.2-0.3-0.4-0.5-0.4-0.5s0.3,0.8,0.8,2.1c0.3,0.9,0.7,2.1,1.1,3.3l-0.2,0.1c-0.3,0.2-0.6,0.4-0.9,0.7
			c-0.3,0.3-0.5,0.7-0.7,1.2c-0.2,0.8-0.2,1.6,0,2.3c0.1,0.2,0.2,0.4,0.3,0.6l0.1,0.2v-0.2c0-0.2,0-0.4,0.1-0.7
			c0.1-0.7,0.2-1.3,0.4-1.9c0.1-0.3,0.2-0.7,0.4-1c0.1-0.3,0.3-0.5,0.5-0.8l0,0c0.1,0.4,0.2,0.8,0.4,1.3c0.3,1,0.5,2,0.8,2.8
			s0.4,1.7,0.5,2.4s0.3,1.2,0.3,1.6s0.1,0.6,0.1,0.6l0.1-0.6C35.5,50.7,35.5,50.1,35.5,49.4z"/>
		<path style="fill:#FF9267;" d="M75.7,45.1c0,0,2.3-12.6,6-10.8s3.9,16.9-6,20.9V45.1z"/>
		<path style="fill:#EE5C1D;" d="M78.1,49.4c0-0.8,0.1-1.7,0.2-2.5c0.1-1,0.3-2,0.6-3c0.5-1.8,1.3-3.5,2.2-5.1
			c0.3-0.5,0.6-0.9,0.9-1.4l0.4-0.5l-0.8,2.1c-0.3,0.9-0.7,2.1-1.1,3.3l0.2,0.1c0.3,0.2,0.6,0.4,0.9,0.7c0.3,0.3,0.5,0.7,0.7,1.2
			c0.3,0.8,0.3,1.6,0,2.3c-0.1,0.2-0.2,0.4-0.3,0.6l-0.1,0.2v-0.2c0-0.2,0-0.4-0.1-0.7c-0.1-0.7-0.2-1.3-0.4-1.9
			c-0.1-0.3-0.2-0.7-0.4-1c-0.1-0.3-0.3-0.5-0.4-0.8l0,0L80,44.2c-0.3,1-0.5,2-0.8,2.8s-0.4,1.7-0.6,2.4s-0.3,1.2-0.3,1.6
			s-0.1,0.6-0.1,0.6L78.2,51C78.1,50.7,78,50.1,78.1,49.4z"/>
		<path style="fill:#FFBA83;" d="M76.6,60c-0.2,1.6-0.6,3.2-1.2,4.7c-0.5,1.3-1.1,2.4-1.8,3.6c-0.9,1.4-1.9,2.6-3,3.8
			c-2,2.1-4.4,3.9-6.9,5.3c-0.8,0.4-1.5,0.8-2.1,1.1c-1.2,0.8-2.7,1.3-4.2,1.5h-0.3h-0.6h-0.3c-1.2-0.1-2.4-0.4-3.4-1
			c-0.3-0.1-0.5-0.3-0.8-0.5c-4.5-2.1-8.4-5.3-11.4-9.3c-0.8-1.1-1.4-2.3-2-3.6C37.8,63.9,37.3,62,37,60c-1-7.4-1-16.9-0.8-24.6
			c0.1-3.9,0.3-7.4,0.5-10c0-0.6,0.1-1.1,0.1-1.6c0.1-2,0.2-3.2,0.2-3.2c2-2.4,4.3-4.6,6.8-6.4c3.8-2.8,8.3-4.4,13-4.6
			c4.2,0.1,8.2,1.4,11.6,3.7c3.1,2,5.8,4.4,8.1,7.2C76.6,20.6,78.6,44.7,76.6,60z"/>
		<path style="fill:#FF9267;" d="M76.6,60c-0.2,1.6-0.6,3.2-1.2,4.7c-0.5,1.3-1.1,2.4-1.8,3.6c-0.9,1.4-1.9,2.6-3,3.8
			c-2,2.1-4.4,3.9-6.9,5.3c-0.8,0.4-1.5,0.8-2.1,1.1c-1.2,0.8-2.7,1.3-4.2,1.5h-0.3h-0.6h-0.3c-1.2-0.1-2.4-0.4-3.4-1
			c8.3-3,16.2-8.2,19.6-16.3c2.1-5,2.2-10.5,2.1-15.9c0-5.8-0.2-11.7-0.5-17.5c-0.1-1.8,0-4-1.7-4.1c-4,3-8.7,4.9-13.6,5.4
			c1.1-0.7,2-1.8,2.5-3c-5.6,2.6-12.1,3-18,1.1c-2.3-0.8-4.5-1.9-6.5-3.3c0-0.6,0.1-1.1,0.1-1.6c0.1-2,0.2-3.2,0.2-3.2
			c2-2.4,4.3-4.6,6.8-6.4c3.8-2.8,8.3-4.4,13-4.6c4.2,0.1,8.2,1.4,11.6,3.7c3.1,2,5.8,4.4,8.1,7.2C76.6,20.6,78.6,44.7,76.6,60z"/>
		<path style="fill:#FFDBB6;" d="M72.6,50.5c0.4,0.1,1.1,0.2,1.2,0.8s-0.4,0.8-0.8,1c-1.3,0.5-2.6,0.8-3.9,1.1
			c-1,0.2-2.9,0.9-3.9,0.6s-0.3-1.5,0.2-1.8C67.5,50.7,70,50.2,72.6,50.5z"/>
		<path style="fill:#FFDBB6;" d="M41,50.5c-0.5,0.1-1.1,0.2-1.2,0.8s0.4,0.8,0.8,1c1.3,0.5,2.6,0.9,3.9,1.2c1,0.2,2.9,0.9,3.9,0.6
			s0.3-1.5-0.2-1.8C46.1,50.8,43.5,50.2,41,50.5z"/>
		<path style="fill:#FFDBB6;" d="M59.1,71.7c-2.3-1.1-5-1.3-7.4-0.4c0.4,0.9,0.9,1.7,1.5,2.4c0.6,0.7,1.4,1.1,2.3,1.1
			c0.7-0.1,1.4-0.4,1.9-0.9C58.1,73.3,58.7,72.5,59.1,71.7z"/>
		<path style="fill:#3D3D3D;" d="M83.1,28.1l-1.7,6.1l-2.2,2l-0.6,0.5l-1.1,7.6L76,23.2c0,0-2.3-3.8-4.1-1.2c-2,2.8-5,4.6-8.5,5
			c2-1.5,3.5-3.5,4.3-5.9c-8.2,6.3-19.3,7.5-28.7,3.2c0.5,6.4-3,22.1-3,22.1v-5l-1.6-3.7l-1.5-3.5L33.3,20c-1-1.8-2.2-3.3-3.2-5.1
			c3,0.9,6.3-0.5,8.7-2.5s4.2-4.6,6.6-6.8c4.3-4,10.5-6.4,16.3-5.3s11,5.9,11.6,11.8c2.5-0.3,5,0.6,6.8,2.4c1.8,1.7,3,3.9,3.4,6.4
			C83.8,23.2,83.7,25.7,83.1,28.1z"/>
		<path style="fill:#292929;" d="M79.2,36.2l-0.6,0.5l-1.1,7.6L76,23.2c0,0-2.3-3.8-4.1-1.2c-2,2.8-5,4.6-8.5,5
			c2-1.5,3.5-3.5,4.3-5.9c-8.2,6.3-19.3,7.5-28.7,3.2c0.5,6.4-3,22.1-3,22.1v-5l-1.6-3.7c2.6-4.6,3.4-10.1,2.2-15.2
			c-0.4-1.1-0.9-2.1-1.6-3.1c11.1,5.2,24.2,4.2,34.4-2.6c0.6,1.1,0.8,2.4,0.6,3.7c1.4-1.2,3.1-1.8,4.9-1.8c1.8,0.1,3.4,1.2,4.2,2.8
			c0.7,1.7,0.2,3.6-0.1,5.5C78.6,30.1,78.6,33.2,79.2,36.2z"/>
		<path style="fill:#5B5B5B;" d="M69.9,13.7c-1.1,2.3-3.5,3.8-5.8,4.8c-4.9,2.1-10.3,2.8-15.5,2.1c1.2-0.6,2.4-1.3,3.5-2.1
			c0.4-0.2,0.8-0.6,0.8-1s-0.4-0.8-0.4-1.2c0-0.7,1-1,1.2-1.7s-0.6-1.2-1.2-1.4s-1.5-0.3-1.9-0.9c-0.2-0.4-0.3-0.7-0.4-1.1
			c-0.6-1-1.6-1.6-2.8-1.5c-1.1-0.1-2.3,0.2-3.4,0C48.8,3.9,56.4,1,63.9,1.9c-0.8,0.5-1.7,0.9-2.6,1.3c-0.9,0.4-1.4,1.3-1.3,2.3
			c0.2,0.7,0.8,1.2,1.5,1.4C62.2,7,62.9,7,63.6,7.2c0.5,0.1,0.9,0.3,1.2,0.7c0.2,0.4,0.2,1,0,1.4c-0.3,0.4-0.6,0.8-1,1.1
			c-0.6,0.4-1.1,1-1.3,1.6c-0.3,0.7,0,1.5,0.7,1.8c0.2,0.1,0.5,0.1,0.7,0.1s0.5,0.2,0.5,0.5s-0.1,0.3-0.1,0.5c0,0.4,0.6,0.6,1,0.5
			C66.9,15.1,68.5,14.5,69.9,13.7z"/>
		<path style="fill:#55062C;" d="M72.8,44.5c-1.5-1.6-3.6-2.5-5.9-2.4c-2.2,0.1-4.2,1.2-5.5,3c0.9-2.3,3-3.9,5.4-4.4
			c1.4-0.2,2.8,0.1,4,0.9C71.8,42.3,72.5,43.3,72.8,44.5z"/>
		<path style="fill:#55062C;" d="M69.6,44.7c0,1.8-1,3.3-2.2,3.3s-2.2-1.5-2.2-3.3s1-3.3,2.2-3.3S69.6,42.9,69.6,44.7z"/>
		<path style="fill:#FFFFFF;" d="M71.8,44.3c-1.4-0.4-3-0.1-4.1,0.8c0.6,0.4,1.3,0.6,2.1,0.5C70.6,45.5,71.3,45,71.8,44.3z"/>
		<path style="fill:#55062C;" d="M40.7,45c1.3-1.8,3.4-2.8,5.6-2.9c2.2-0.1,4.3,0.8,5.7,2.5c-1.1-2.2-3.3-3.7-5.8-3.9
			c-1.4-0.1-2.8,0.4-3.9,1.2C41.5,42.7,40.9,43.8,40.7,45z"/>
		<path style="fill:#55062C;" d="M44,44.9c0.2,1.8,1.3,3.2,2.5,3.1s2-1.7,1.8-3.5s-1.3-3.2-2.5-3.1S43.8,43.1,44,44.9z"/>
		<path style="fill:#FFFFFF;" d="M46.3,44.8c1.4-0.6,2.9-0.4,4.2,0.4c-0.5,0.5-1.3,0.8-2,0.7C47.7,45.8,46.9,45.4,46.3,44.8z"/>
		<path style="fill:#55062C;" d="M61.6,69.5c-3.2,0.4-6.4,0.3-9.5-0.3c-0.2-1.4-0.3-2.9-0.2-4.3c0-0.4,0-0.9,0-1.3
			c0.1-1.1,0.2-2.3,0.4-3.4l0.1-0.3c1.3-1.1,2.9-1.6,4.5-1.5c1.6,0.1,3.1,0.7,4.3,1.8l0.1,0.1c0,1,0.1,2,0.1,3V64
			C61.5,65.8,61.5,67.7,61.6,69.5z"/>
		<path style="fill:#E80E22;" d="M61.6,69.5c-3.2,0.4-6.4,0.3-9.5-0.3c-0.2-1.4-0.3-2.9-0.2-4.3c2.8-1.2,5.9-1.6,8.9-1l0.7,0.2
			C61.5,65.8,61.5,67.7,61.6,69.5z"/>
		<path style="fill:#FFFFFF;" d="M61.2,60.2c-0.1,0.3-0.2,0.6-0.3,0.9c-2.6,0.3-5.3,0.4-7.9,0c-0.3-0.3-0.5-0.6-0.6-1l0.1-0.3
			c1.3-1.1,2.9-1.6,4.5-1.5C58.5,58.4,60,59.1,61.2,60.2z"/>
		<path style="fill:#292929;" d="M45.5,31.1c0.9-0.4,1.8-0.6,2.8-0.7c1,0,3.4,0.7,2.9,2.2c-0.2,0.5-0.6,0.9-1.2,1.1
			c-0.5,0.1-1.1,0.2-1.7,0.2c-2.3,0.1-4.5,0.7-6.7,1.6c-0.7,0.3-1.4,0.6-2.1,0.8c-0.2,0-0.3,0-0.5-0.1c-0.5-0.5,1-1.8,1.3-2.1
			c1.1-1,2.4-1.7,3.7-2.3C44.5,31.5,45,31.3,45.5,31.1z"/>
		<path style="fill:#292929;" d="M66.8,29.1c-0.9-0.4-1.8-0.6-2.8-0.7c-1,0-3.4,0.7-3,2.2c0.2,0.5,0.7,0.9,1.2,1.1
			c0.6,0.2,1.2,0.3,1.8,0.3c2.3,0.2,4.5,0.7,6.7,1.6c0.7,0.3,1.4,0.6,2.1,0.8c0.2,0,0.3,0,0.5-0.1c0.5-0.4-1-1.8-1.3-2.1
			c-1.1-1-2.4-1.7-3.7-2.3C67.7,29.5,67.2,29.3,66.8,29.1z"/>
		<path style="fill:#292929;" d="M72.4,57.5c-2.9,4.4-8.9,5.6-13.3,2.7c-0.9-0.6-1.8-1.4-2.4-2.3c-3.5,4-9.5,4.4-13.5,1
			c-0.9-0.7-1.6-1.6-2.1-2.6h0.2l8.4-2.3c1.2-0.4,2.4-0.6,3.7-0.6c1.3,0,2.6,0.6,3.5,1.5c1-0.8,2.3-1.3,3.6-1.2
			c1.2,0.1,2.5,0.4,3.6,0.9l6.8,2.4L72.4,57.5z"/>
		<path style="fill:#3D3D3D;" d="M70.8,56.9L70.8,56.9c-2.2,0.4-4.3,0.4-6.3-0.2l1.9,1.8c-2.7,0.8-5.6,0-7.5-2.1c0,0.5,0,0.9,0,1.4
			c-0.8-0.2-1.4-0.8-1.7-1.5c-0.6,0.5-1.3,0.8-2.1,0.9c0.3-0.4,0.5-0.7,0.8-1.1c-1.3,1-2.7,1.8-4.2,2.4c-0.6,0.3-1.2,0.4-1.8,0.2
			c-0.6-0.2-1-1-0.6-1.5c-1.6,0.3-3.3,0.4-5,0.2c-1-0.2-2-0.6-2.8-1.2l8.4-2.3c1.2-0.4,2.4-0.6,3.7-0.6c1.3,0,2.6,0.6,3.5,1.5
			c1-0.8,2.3-1.3,3.6-1.2c1.2,0.1,2.5,0.4,3.6,0.9L70.8,56.9z"/>
		<path style="fill:#FFDBB6;" d="M61.8,50.6c-1.3,0.7-3.2,1.8-4.6,2.4c-1.7-0.4-3.2-1.2-4.4-2.4c0.8-1.8,2.5-2.9,4.5-2.9
			C59.2,47.8,60.9,48.9,61.8,50.6z"/>
		<path style="fill:#FF9267;" d="M62.2,53.9c-1.5,0.7-3.2,0.9-4.9,0.5c-1.7,0.5-3.5,0.3-5-0.6c-0.2-0.8-0.2-1.7,0-2.5
			c1.3,1.2,2.9,2,4.7,2.1c1.7,0.1,3.4-1.2,4.9-2.1C62.1,52.1,62.2,53,62.2,53.9z"/>
		<path style="fill:#893412;" d="M54,54.1c-0.2,0-0.4-0.1-0.6-0.2c-0.2-0.1-0.3-0.3-0.3-0.5c0-0.2,0.3-0.4,0.5-0.4
			c0.2,0,0.5,0.1,0.7,0.2c0.7,0.3,1.4,0.6,2,1.1C55.5,54.3,54.7,54.2,54,54.1z"/>
		<path style="fill:#893412;" d="M60.8,53.7c0.2,0,0.4-0.1,0.6-0.2c0.2-0.1,0.3-0.3,0.2-0.6c-0.1-0.2-0.3-0.4-0.5-0.4
			c-0.2,0-0.5,0.1-0.7,0.2c-0.7,0.3-1.3,0.8-1.9,1.3C59.3,54.1,60.1,54,60.8,53.7z"/>
	</g>
</g>
</svg>
